Raleway-Thin-Italic-TTF.ufo
<glyph name="percent" format="1">
  <advance width="644"/>
  <unicode hex="0025"/>
  <outline>
    <contour>
      <point x="210" y="444" type="qcurve"/>
      <point x="162" y="444"/>
      <point x="105" y="509"/>
      <point x="105" y="557" type="qcurve"/>
      <point x="105" y="590"/>
      <point x="133" y="649"/>
      <point x="179" y="694"/>
      <point x="238" y="720"/>
      <point x="269" y="720" type="qcurve"/>
      <point x="316" y="720"/>
      <point x="374" y="655"/>
      <point x="374" y="607" type="qcurve"/>
      <point x="374" y="574"/>
      <point x="346" y="515"/>
      <point x="300" y="470"/>
      <point x="241" y="444"/>
    </contour>
    <contour>
      <point x="214" y="464" type="qcurve"/>
      <point x="241" y="464"/>
      <point x="291" y="487"/>
      <point x="330" y="526"/>
      <point x="354" y="576"/>
      <point x="354" y="603" type="qcurve"/>
      <point x="354" y="644"/>
      <point x="302" y="700"/>
      <point x="264" y="700" type="qcurve"/>
      <point x="237" y="700"/>
      <point x="187" y="677"/>
      <point x="148" y="638"/>
      <point x="125" y="588"/>
      <point x="125" y="561" type="qcurve"/>
      <point x="125" y="519"/>
      <point x="175" y="464"/>
    </contour>
    <contour>
      <point x="398" y="-10" type="qcurve"/>
      <point x="351" y="-10"/>
      <point x="293" y="55"/>
      <point x="293" y="103" type="qcurve"/>
      <point x="293" y="136"/>
      <point x="321" y="195"/>
      <point x="367" y="240"/>
      <point x="426" y="266"/>
      <point x="457" y="266" type="qcurve"/>
      <point x="504" y="266"/>
      <point x="562" y="201"/>
      <point x="562" y="153" type="qcurve"/>
      <point x="562" y="120"/>
      <point x="534" y="61"/>
      <point x="488" y="16"/>
      <point x="429" y="-10"/>
    </contour>
    <contour>
      <point x="402" y="10" type="qcurve"/>
      <point x="429" y="10"/>
      <point x="479" y="33"/>
      <point x="518" y="72"/>
      <point x="542" y="121"/>
      <point x="542" y="148" type="qcurve"/>
      <point x="542" y="189"/>
      <point x="491" y="246"/>
      <point x="453" y="246" type="qcurve"/>
      <point x="426" y="246"/>
      <point x="376" y="222"/>
      <point x="337" y="183"/>
      <point x="313" y="133"/>
      <point x="313" y="106" type="qcurve"/>
      <point x="313" y="65"/>
      <point x="362" y="10"/>
    </contour>
    <contour>
      <point x="-13" y="11" type="line"/>
      <point x="666" y="711" type="line"/>
      <point x="679" y="699" type="line"/>
      <point x="0" y="-1" type="line"/>
    </contour>
  </outline>
</glyph>
<glyph name="parenright" format="1">
  <advance width="228"/>
  <unicode hex="0029"/>
  <outline>
    <contour>
      <point x="198" y="433" type="qcurve"/>
      <point x="198" y="315"/>
      <point x="84" y="94"/>
      <point x="-19" y="-26" type="qcurve"/>
      <point x="-32" y="-14" type="line"/>
      <point x="15" y="39"/>
      <point x="92" y="149"/>
      <point x="147" y="260"/>
      <point x="177" y="371"/>
      <point x="177" y="424" type="qcurve"/>
      <point x="177" y="461"/>
      <point x="169" y="541"/>
      <point x="154" y="618"/>
      <point x="134" y="688"/>
      <point x="123" y="714" type="qcurve"/>
      <point x="141" y="726" type="line"/>
      <point x="165" y="659"/>
      <point x="198" y="508"/>
    </contour>
  </outline>
</glyph>
<glyph name="four" format="1">
  <advance width="499"/>
  <unicode hex="0034"/>
  <outline>
    <contour>
      <point x="319" y="72" type="line"/>
      <point x="-27" y="72" type="line"/>
      <point x="-23" y="89" type="line"/>
      <point x="431" y="571" type="line"/>
      <point x="445" y="571" type="line"/>
      <point x="343" y="92" type="line"/>
      <point x="427" y="92" type="line"/>
      <point x="423" y="72" type="line"/>
      <point x="339" y="72" type="line"/>
      <point x="297" y="-127" type="line"/>
      <point x="277" y="-127" type="line"/>
    </contour>
    <contour>
      <point x="323" y="92" type="line"/>
      <point x="417" y="534" type="line"/>
      <point x="5" y="92" type="line"/>
    </contour>
  </outline>
</glyph>
<glyph name="at" format="1">
  <advance width="791"/>
  <unicode hex="0040"/>
  <outline>
    <contour>
      <point x="540" y="4" type="qcurve"/>
      <point x="572" y="4"/>
      <point x="632" y="55"/>
      <point x="679" y="139"/>
      <point x="707" y="245"/>
      <point x="707" y="300" type="qcurve"/>
      <point x="707" y="363"/>
      <point x="668" y="468"/>
      <point x="598" y="542"/>
      <point x="503" y="583"/>
      <point x="446" y="583" type="qcurve"/>
      <point x="370" y="583"/>
      <point x="226" y="512"/>
      <point x="114" y="393"/>
      <point x="46" y="240"/>
      <point x="46" y="158" type="qcurve"/>
      <point x="46" y="97"/>
      <point x="85" y="-7"/>
      <point x="154" y="-83"/>
      <point x="251" y="-126"/>
      <point x="308" y="-126" type="qcurve"/>
      <point x="381" y="-126"/>
      <point x="456" y="-88" type="qcurve"/>
      <point x="462" y="-106" type="line"/>
      <point x="420" y="-126"/>
      <point x="335" y="-146"/>
      <point x="297" y="-146" type="qcurve"/>
      <point x="238" y="-146"/>
      <point x="139" y="-99"/>
      <point x="67" y="-17"/>
      <point x="26" y="93"/>
      <point x="26" y="157" type="qcurve"/>
      <point x="26" y="215"/>
      <point x="59" y="325"/>
      <point x="118" y="424"/>
      <point x="198" y="508"/>
      <point x="292" y="569"/>
      <point x="396" y="603"/>
      <point x="449" y="603" type="qcurve"/>
      <point x="508" y="603"/>
      <point x="610" y="560"/>
      <point x="685" y="481"/>
      <point x="727" y="370"/>
      <point x="727" y="303" type="qcurve"/>
      <point x="727" y="244"/>
      <point x="695" y="130"/>
      <point x="641" y="40"/>
      <point x="570" y="-16"/>
      <point x="530" y="-16" type="qcurve"/>
      <point x="503" y="-16"/>
      <point x="479" y="12"/>
      <point x="479" y="44" type="qcurve"/>
      <point x="479" y="52"/>
      <point x="481" y="73"/>
      <point x="483" y="84" type="qcurve"/>
      <point x="449" y="51"/>
      <point x="361" y="12"/>
      <point x="320" y="12" type="qcurve"/>
      <point x="288" y="12"/>
      <point x="236" y="37"/>
      <point x="198" y="82"/>
      <point x="178" y="146"/>
      <point x="178" y="184" type="qcurve"/>
      <point x="178" y="237"/>
      <point x="216" y="333"/>
      <point x="281" y="406"/>
      <point x="367" y="449"/>
      <point x="414" y="449" type="qcurve"/>
      <point x="461" y="449"/>
      <point x="528" y="404"/>
      <point x="545" y="362" type="qcurve"/>
      <point x="563" y="450" type="line"/>
      <point x="583" y="450" type="line"/>
      <point x="508" y="99" type="line"/>
      <point x="503" y="77"/>
      <point x="501" y="53"/>
      <point x="501" y="47" type="qcurve"/>
      <point x="501" y="4"/>
    </contour>
    <contour>
      <point x="325" y="32" type="qcurve"/>
      <point x="350" y="32"/>
      <point x="403" y="49"/>
      <point x="451" y="78"/>
      <point x="488" y="117"/>
      <point x="497" y="139" type="qcurve"/>
      <point x="537" y="334" type="line"/>
      <point x="524" y="379"/>
      <point x="458" y="428"/>
      <point x="411" y="428" type="qcurve"/>
      <point x="369" y="428"/>
      <point x="292" y="388"/>
      <point x="233" y="322"/>
      <point x="198" y="234"/>
      <point x="198" y="186" type="qcurve"/>
      <point x="198" y="153"/>
      <point x="216" y="96"/>
      <point x="249" y="55"/>
      <point x="296" y="32"/>
    </contour>
  </outline>
</glyph>
<glyph name="B" format="1">
  <advance width="628"/>
  <unicode hex="0042"/>
  <outline>
    <contour>
      <point x="184" y="710" type="line"/>
      <point x="483" y="710" type="line"/>
      <point x="513" y="710"/>
      <point x="558" y="685"/>
      <point x="588" y="645"/>
      <point x="603" y="593"/>
      <point x="603" y="565" type="qcurve"/>
      <point x="603" y="532"/>
      <point x="582" y="471"/>
      <point x="545" y="418"/>
      <point x="495" y="377"/>
      <point x="466" y="364" type="qcurve"/>
      <point x="511" y="349"/>
      <point x="558" y="268"/>
      <point x="558" y="218" type="qcurve"/>
      <point x="558" y="175"/>
      <point x="521" y="96"/>
      <point x="461" y="36"/>
      <point x="385" y="0"/>
      <point x="346" y="0" type="qcurve"/>
      <point x="33" y="0" type="line"/>
    </contour>
    <contour>
      <point x="350" y="20" type="line"/>
      <point x="385" y="20"/>
      <point x="452" y="54"/>
      <point x="505" y="109"/>
      <point x="537" y="179"/>
      <point x="537" y="215" type="qcurve"/>
      <point x="537" y="242"/>
      <point x="522" y="290"/>
      <point x="493" y="326"/>
      <point x="452" y="348"/>
      <point x="426" y="348" type="qcurve"/>
      <point x="127" y="348" type="line"/>
      <point x="57" y="20" type="line"/>
    </contour>
    <contour>
      <point x="404" y="368" type="line"/>
      <point x="439" y="368"/>
      <point x="504" y="402"/>
      <point x="553" y="457"/>
      <point x="583" y="527"/>
      <point x="583" y="562" type="qcurve"/>
      <point x="583" y="588"/>
      <point x="569" y="634"/>
      <point x="542" y="669"/>
      <point x="503" y="690"/>
      <point x="478" y="690" type="qcurve"/>
      <point x="200" y="690" type="line"/>
      <point x="131" y="368" type="line"/>
    </contour>
  </outline>
</glyph>
<glyph name="D" format="1">
  <advance width="684"/>
  <unicode hex="0044"/>
  <outline>
    <contour>
      <point x="427" y="707" type="move" name="top"/>
    </contour>
    <contour>
      <point x="184" y="710" type="line"/>
      <point x="401" y="710" type="line"/>
      <point x="466" y="710"/>
      <point x="561" y="668"/>
      <point x="623" y="595"/>
      <point x="653" y="497"/>
      <point x="653" y="440" type="qcurve"/>
      <point x="653" y="345"/>
      <point x="593" y="184"/>
      <point x="485" y="67"/>
      <point x="337" y="0"/>
      <point x="250" y="0" type="qcurve"/>
      <point x="33" y="0" type="line"/>
    </contour>
    <contour>
      <point x="254" y="20" type="line"/>
      <point x="343" y="20"/>
      <point x="484" y="88"/>
      <point x="581" y="203"/>
      <point x="633" y="353"/>
      <point x="633" y="435" type="qcurve"/>
      <point x="633" y="491"/>
      <point x="603" y="585"/>
      <point x="544" y="652"/>
      <point x="455" y="690"/>
      <point x="397" y="690" type="qcurve"/>
      <point x="200" y="690" type="line"/>
      <point x="57" y="20" type="line"/>
    </contour>
  </outline>
</glyph>
<glyph name="F" format="1">
  <advance width="588"/>
  <unicode hex="0046"/>
  <outline>
    <contour>
      <point x="184" y="710" type="line"/>
      <point x="618" y="710" type="line"/>
      <point x="614" y="690" type="line"/>
      <point x="200" y="690" type="line"/>
      <point x="133" y="374" type="line"/>
      <point x="486" y="374" type="line"/>
      <point x="482" y="354" type="line"/>
      <point x="128" y="354" type="line"/>
      <point x="53" y="0" type="line"/>
      <point x="33" y="0" type="line"/>
    </contour>
  </outline>
</glyph>
<glyph name="backslash" format="1">
  <advance width="480"/>
  <unicode hex="005C"/>
  <outline>
    <contour>
      <point x="130" y="710" type="line"/>
      <point x="392" y="0" type="line"/>
      <point x="367" y="0" type="line"/>
      <point x="104" y="710" type="line"/>
    </contour>
  </outline>
</glyph>
<glyph name="m" format="1">
  <advance width="866"/>
  <unicode hex="006D"/>
  <outline>
    <contour>
      <point x="127" y="519" type="line"/>
      <point x="147" y="519" type="line"/>
      <point x="119" y="385" type="line"/>
      <point x="166" y="453"/>
      <point x="281" y="527"/>
      <point x="340" y="527" type="qcurve"/>
      <point x="396" y="527"/>
      <point x="458" y="457"/>
      <point x="458" y="394" type="qcurve"/>
      <point x="458" y="388"/>
      <point x="458" y="376"/>
      <point x="457" y="370" type="qcurve"/>
      <point x="476" y="408"/>
      <point x="529" y="467"/>
      <point x="590" y="507"/>
      <point x="656" y="527"/>
      <point x="688" y="527" type="qcurve"/>
      <point x="801" y="527"/>
      <point x="801" y="396" type="qcurve"/>
      <point x="801" y="374"/>
      <point x="795" y="320"/>
      <point x="788" y="289" type="qcurve"/>
      <point x="727" y="0" type="line"/>
      <point x="707" y="0" type="line"/>
      <point x="768" y="289" type="line"/>
      <point x="780" y="347"/>
      <point x="780" y="390" type="qcurve"/>
      <point x="780" y="507"/>
      <point x="682" y="507" type="qcurve"/>
      <point x="648" y="507"/>
      <point x="581" y="481"/>
      <point x="521" y="433"/>
      <point x="470" y="367"/>
      <point x="451" y="327" type="qcurve"/>
      <point x="382" y="0" type="line"/>
      <point x="362" y="0" type="line"/>
      <point x="423" y="289" type="line"/>
      <point x="430" y="320"/>
      <point x="436" y="372"/>
      <point x="436" y="393" type="qcurve"/>
      <point x="436" y="507"/>
      <point x="339" y="507" type="qcurve"/>
      <point x="304" y="507"/>
      <point x="238" y="481"/>
      <point x="178" y="434"/>
      <point x="126" y="368"/>
      <point x="107" y="328" type="qcurve"/>
      <point x="37" y="0" type="line"/>
      <point x="17" y="0" type="line"/>
    </contour>
  </outline>
</glyph>
<glyph name="p" format="1">
  <advance width="577"/>
  <unicode hex="0070"/>
  <outline>
    <contour>
      <point x="128" y="519" type="line"/>
      <point x="147" y="519" type="line"/>
      <point x="124" y="409" type="line"/>
      <point x="145" y="435"/>
      <point x="197" y="478"/>
      <point x="254" y="510"/>
      <point x="314" y="527"/>
      <point x="342" y="527" type="qcurve"/>
      <point x="386" y="527"/>
      <point x="455" y="490"/>
      <point x="503" y="428"/>
      <point x="528" y="348"/>
      <point x="528" y="306" type="qcurve"/>
      <point x="528" y="247"/>
      <point x="482" y="134"/>
      <point x="402" y="45"/>
      <point x="296" y="-10"/>
      <point x="236" y="-10" type="qcurve"/>
      <point x="203" y="-10"/>
      <point x="149" y="11"/>
      <point x="105" y="46"/>
      <point x="73" y="93"/>
      <point x="63" y="119" type="qcurve"/>
      <point x="-8" y="-213" type="line"/>
      <point x="-28" y="-213" type="line"/>
    </contour>
    <contour>
      <point x="240" y="10" type="qcurve"/>
      <point x="295" y="10"/>
      <point x="393" y="63"/>
      <point x="466" y="147"/>
      <point x="508" y="252"/>
      <point x="508" y="304" type="qcurve"/>
      <point x="508" y="344"/>
      <point x="484" y="418"/>
      <point x="439" y="474"/>
      <point x="376" y="507"/>
      <point x="337" y="507" type="qcurve"/>
      <point x="308" y="507"/>
      <point x="237" y="481"/>
      <point x="171" y="437"/>
      <point x="120" y="379"/>
      <point x="111" y="348" type="qcurve"/>
      <point x="71" y="161" type="line"/>
      <point x="78" y="129"/>
      <point x="108" y="74"/>
      <point x="151" y="34"/>
      <point x="207" y="10"/>
    </contour>
  </outline>
</glyph>
<glyph name="v" format="1">
  <advance width="451"/>
  <unicode hex="0076"/>
  <outline>
    <contour>
      <point x="64" y="519" type="line"/>
      <point x="85" y="519" type="line"/>
      <point x="163" y="28" type="line"/>
      <point x="212" y="83"/>
      <point x="295" y="209"/>
      <point x="362" y="338"/>
      <point x="413" y="463"/>
      <point x="431" y="519" type="qcurve"/>
      <point x="451" y="519" type="line"/>
      <point x="410" y="388"/>
      <point x="274" y="124"/>
      <point x="165" y="0" type="qcurve"/>
      <point x="147" y="0" type="line"/>
    </contour>
  </outline>
</glyph>
<glyph name="braceright" format="1">
  <advance width="218"/>
  <unicode hex="007D"/>
  <outline>
    <contour>
      <point x="140" y="720" type="line"/>
      <point x="144" y="740" type="line"/>
      <point x="194" y="740" type="line"/>
      <point x="197" y="740"/>
      <point x="211" y="733"/>
      <point x="211" y="719" type="qcurve"/>
      <point x="211" y="713"/>
      <point x="210" y="710" type="qcurve"/>
      <point x="147" y="416" type="line"/>
      <point x="145" y="410"/>
      <point x="145" y="399" type="qcurve"/>
      <point x="145" y="389"/>
      <point x="153" y="371"/>
      <point x="166" y="371" type="qcurve"/>
      <point x="162" y="351" type="line"/>
      <point x="145" y="349"/>
      <point x="126" y="319"/>
      <point x="123" y="304" type="qcurve"/>
      <point x="59" y="-1" type="line"/>
      <point x="55" y="-18"/>
      <point x="38" y="-31"/>
      <point x="30" y="-31" type="qcurve"/>
      <point x="-20" y="-31" type="line"/>
      <point x="-16" y="-11" type="line"/>
      <point x="36" y="-11" type="line"/>
      <point x="103" y="304" type="line"/>
      <point x="104" y="309"/>
      <point x="118" y="346"/>
      <point x="135" y="360" type="qcurve"/>
      <point x="129" y="368"/>
      <point x="125" y="386"/>
      <point x="125" y="394" type="qcurve"/>
      <point x="125" y="410"/>
      <point x="127" y="416" type="qcurve"/>
      <point x="192" y="720" type="line"/>
    </contour>
  </outline>
</glyph>
<glyph name="section" format="1">
  <advance width="468"/>
  <unicode hex="00A7"/>
  <outline>
    <contour>
      <point x="346" y="181" type="qcurve"/>
      <point x="379" y="158"/>
      <point x="379" y="106" type="qcurve"/>
      <point x="379" y="59"/>
      <point x="337" y="-14"/>
      <point x="272" y="-63"/>
      <point x="196" y="-88"/>
      <point x="162" y="-88" type="qcurve"/>
      <point x="101" y="-88"/>
      <point x="27" y="-40"/>
      <point x="2" y="-6" type="qcurve"/>
      <point x="20" y="7" type="line"/>
      <point x="50" y="-31"/>
      <point x="119" y="-68"/>
      <point x="167" y="-68" type="qcurve"/>
      <point x="198" y="-68"/>
      <point x="265" y="-45"/>
      <point x="321" y="-2"/>
      <point x="357" y="60"/>
      <point x="357" y="99" type="qcurve"/>
      <point x="357" y="127"/>
      <point x="334" y="162"/>
      <point x="297" y="182"/>
      <point x="251" y="189"/>
      <point x="227" y="190" type="qcurve"/>
      <point x="196" y="191"/>
      <point x="142" y="205"/>
      <point x="101" y="235"/>
      <point x="78" y="280"/>
      <point x="78" y="312" type="qcurve"/>
      <point x="78" y="348"/>
      <point x="112" y="415"/>
      <point x="133" y="435" type="qcurve"/>
      <point x="116" y="447"/>
      <point x="98" y="496"/>
      <point x="98" y="525" type="qcurve"/>
      <point x="98" y="571"/>
      <point x="140" y="642"/>
      <point x="203" y="690"/>
      <point x="278" y="715"/>
      <point x="311" y="715" type="qcurve"/>
      <point x="342" y="715"/>
      <point x="389" y="705"/>
      <point x="422" y="686"/>
      <point x="445" y="658"/>
      <point x="453" y="640" type="qcurve"/>
      <point x="433" y="632" type="line"/>
      <point x="428" y="651"/>
      <point x="401" y="676"/>
      <point x="365" y="690"/>
      <point x="325" y="695"/>
      <point x="307" y="695" type="qcurve"/>
      <point x="276" y="695"/>
      <point x="210" y="672"/>
      <point x="155" y="629"/>
      <point x="119" y="567"/>
      <point x="119" y="528" type="qcurve"/>
      <point x="119" y="472"/>
      <point x="193" y="426"/>
      <point x="252" y="426" type="qcurve"/>
      <point x="282" y="426"/>
      <point x="337" y="413"/>
      <point x="379" y="384"/>
      <point x="405" y="339"/>
      <point x="405" y="307" type="qcurve"/>
      <point x="405" y="271"/>
      <point x="371" y="202"/>
    </contour>
    <contour>
      <point x="98" y="312" type="qcurve"/>
      <point x="98" y="280"/>
      <point x="123" y="242"/>
      <point x="162" y="220"/>
      <point x="213" y="210"/>
      <point x="264" y="204"/>
      <point x="311" y="198"/>
      <point x="328" y="190" type="qcurve"/>
      <point x="352" y="208"/>
      <point x="385" y="271"/>
      <point x="385" y="303" type="qcurve"/>
      <point x="385" y="332"/>
      <point x="360" y="372"/>
      <point x="320" y="396"/>
      <point x="272" y="406"/>
      <point x="248" y="406" type="qcurve"/>
      <point x="220" y="406"/>
      <point x="170" y="415"/>
      <point x="150" y="425" type="qcurve"/>
      <point x="129" y="408"/>
      <point x="98" y="347"/>
    </contour>
  </outline>
</glyph>
<glyph name="copyright" format="1">
  <advance width="836"/>
  <unicode hex="00A9"/>
  <outline>
    <contour>
      <point x="429" y="-7" type="qcurve"/>
      <point x="351" y="-7"/>
      <point x="219" y="48"/>
      <point x="123" y="145"/>
      <point x="68" y="277"/>
      <point x="68" y="355" type="qcurve"/>
      <point x="68" y="432"/>
      <point x="123" y="564"/>
      <point x="219" y="660"/>
      <point x="351" y="715"/>
      <point x="429" y="715" type="qcurve"/>
      <point x="507" y="715"/>
      <point x="639" y="660"/>
      <point x="735" y="564"/>
      <point x="790" y="432"/>
      <point x="790" y="355" type="qcurve"/>
      <point x="790" y="277"/>
      <point x="735" y="145"/>
      <point x="639" y="48"/>
      <point x="507" y="-7"/>
    </contour>
    <contour>
      <point x="430" y="13" type="qcurve"/>
      <point x="502" y="13"/>
      <point x="625" y="62"/>
      <point x="717" y="152"/>
      <point x="769" y="277"/>
      <point x="769" y="352" type="qcurve"/>
      <point x="769" y="426"/>
      <point x="718" y="552"/>
      <point x="627" y="643"/>
      <point x="503" y="695"/>
      <point x="430" y="695" type="qcurve"/>
      <point x="356" y="695"/>
      <point x="232" y="644"/>
      <point x="140" y="552"/>
      <point x="89" y="427"/>
      <point x="89" y="354" type="qcurve"/>
      <point x="89" y="281"/>
      <point x="140" y="156"/>
      <point x="231" y="65"/>
      <point x="356" y="13"/>
    </contour>
    <contour>
      <point x="436" y="127" type="qcurve"/>
      <point x="398" y="127"/>
      <point x="320" y="157"/>
      <point x="257" y="216"/>
      <point x="217" y="301"/>
      <point x="217" y="355" type="qcurve"/>
      <point x="217" y="395"/>
      <point x="242" y="477"/>
      <point x="293" y="544"/>
      <point x="373" y="586"/>
      <point x="428" y="586" type="qcurve"/>
      <point x="484" y="586"/>
      <point x="578" y="538"/>
      <point x="598" y="487" type="qcurve"/>
      <point x="579" y="480" type="line"/>
      <point x="567" y="507"/>
      <point x="530" y="541"/>
      <point x="487" y="560"/>
      <point x="444" y="566"/>
      <point x="428" y="566" type="qcurve"/>
      <point x="378" y="566"/>
      <point x="306" y="527"/>
      <point x="260" y="466"/>
      <point x="237" y="391"/>
      <point x="237" y="355" type="qcurve"/>
      <point x="237" y="305"/>
      <point x="274" y="228"/>
      <point x="331" y="175"/>
      <point x="400" y="147"/>
      <point x="432" y="147" type="qcurve"/>
      <point x="454" y="147"/>
      <point x="501" y="160"/>
      <point x="545" y="183"/>
      <point x="580" y="217"/>
      <point x="589" y="238" type="qcurve"/>
      <point x="608" y="233" type="line"/>
      <point x="604" y="220"/>
      <point x="576" y="183"/>
      <point x="531" y="150"/>
      <point x="471" y="127"/>
    </contour>
  </outline>
</glyph>
<glyph name="uni00AD" format="1">
  <advance width="519"/>
  <unicode hex="00AD"/>
  <outline>
    <contour>
      <point x="59" y="261" type="line"/>
      <point x="63" y="281" type="line"/>
      <point x="447" y="281" type="line"/>
      <point x="443" y="261" type="line"/>
    </contour>
  </outline>
</glyph>
<glyph name="registered" format="1">
  <advance width="836"/>
  <unicode hex="00AE"/>
  <outline>
    <contour>
      <point x="429" y="-7" type="qcurve"/>
      <point x="351" y="-7"/>
      <point x="219" y="48"/>
      <point x="123" y="145"/>
      <point x="68" y="277"/>
      <point x="68" y="355" type="qcurve"/>
      <point x="68" y="432"/>
      <point x="123" y="564"/>
      <point x="219" y="660"/>
      <point x="351" y="715"/>
      <point x="429" y="715" type="qcurve"/>
      <point x="507" y="715"/>
      <point x="639" y="660"/>
      <point x="735" y="564"/>
      <point x="790" y="432"/>
      <point x="790" y="355" type="qcurve"/>
      <point x="790" y="277"/>
      <point x="735" y="145"/>
      <point x="639" y="48"/>
      <point x="507" y="-7"/>
    </contour>
    <contour>
      <point x="429" y="13" type="qcurve"/>
      <point x="501" y="13"/>
      <point x="625" y="62"/>
      <point x="717" y="152"/>
      <point x="769" y="278"/>
      <point x="769" y="355" type="qcurve"/>
      <point x="769" y="428"/>
      <point x="718" y="552"/>
      <point x="627" y="643"/>
      <point x="502" y="695"/>
      <point x="429" y="695" type="qcurve"/>
      <point x="356" y="695"/>
      <point x="231" y="643"/>
      <point x="140" y="552"/>
      <point x="89" y="428"/>
      <point x="89" y="355" type="qcurve"/>
      <point x="89" y="281"/>
      <point x="140" y="156"/>
      <point x="231" y="65"/>
      <point x="355" y="13"/>
    </contour>
    <contour>
      <point x="284" y="583" type="line"/>
      <point x="472" y="583" type="line"/>
      <point x="500" y="583"/>
      <point x="548" y="559"/>
      <point x="583" y="519"/>
      <point x="602" y="469"/>
      <point x="602" y="443" type="qcurve"/>
      <point x="602" y="416"/>
      <point x="585" y="367"/>
      <point x="554" y="329"/>
      <point x="510" y="305"/>
      <point x="484" y="303" type="qcurve"/>
      <point x="601" y="121" type="line"/>
      <point x="577" y="121" type="line"/>
      <point x="461" y="303" type="line"/>
      <point x="305" y="303" type="line"/>
      <point x="305" y="121" type="line"/>
      <point x="284" y="121" type="line"/>
    </contour>
    <contour>
      <point x="477" y="323" type="line"/>
      <point x="503" y="323"/>
      <point x="542" y="342"/>
      <point x="569" y="375"/>
      <point x="582" y="419"/>
      <point x="582" y="443" type="qcurve"/>
      <point x="582" y="467"/>
      <point x="566" y="511"/>
      <point x="537" y="543"/>
      <point x="496" y="562"/>
      <point x="472" y="562" type="qcurve"/>
      <point x="305" y="562" type="line"/>
      <point x="305" y="323" type="line"/>
    </contour>
  </outline>
</glyph>
<glyph name="threesuperior" format="1">
  <advance width="363"/>
  <unicode hex="00B3"/>
  <outline>
    <contour>
      <point x="205" y="418" type="qcurve"/>
      <point x="145" y="418"/>
      <point x="84" y="472"/>
      <point x="84" y="514" type="qcurve"/>
      <point x="101" y="521" type="line"/>
      <point x="101" y="480"/>
      <point x="158" y="437"/>
      <point x="209" y="437" type="qcurve"/>
      <point x="237" y="437"/>
      <point x="288" y="452"/>
      <point x="326" y="478"/>
      <point x="349" y="513"/>
      <point x="349" y="534" type="qcurve"/>
      <point x="349" y="569"/>
      <point x="283" y="609"/>
      <point x="225" y="609" type="qcurve"/>
      <point x="204" y="609" type="line"/>
      <point x="208" y="627" type="line"/>
      <point x="229" y="627" type="line"/>
      <point x="299" y="627"/>
      <point x="376" y="673"/>
      <point x="376" y="717" type="qcurve"/>
      <point x="376" y="751"/>
      <point x="322" y="793"/>
      <point x="277" y="793" type="qcurve"/>
      <point x="237" y="793"/>
      <point x="169" y="759"/>
      <point x="152" y="733" type="qcurve"/>
      <point x="140" y="745" type="line"/>
      <point x="160" y="775"/>
      <point x="237" y="811"/>
      <point x="281" y="811" type="qcurve"/>
      <point x="334" y="811"/>
      <point x="397" y="759"/>
      <point x="397" y="720" type="qcurve"/>
      <point x="397" y="682"/>
      <point x="345" y="629"/>
      <point x="292" y="618" type="qcurve"/>
      <point x="328" y="611"/>
      <point x="369" y="566"/>
      <point x="369" y="536" type="qcurve"/>
      <point x="369" y="510"/>
      <point x="342" y="467"/>
      <point x="297" y="436"/>
      <point x="237" y="418"/>
    </contour>
  </outline>
</glyph>
<glyph name="paragraph" format="1">
  <advance width="541"/>
  <unicode hex="00B6"/>
  <outline>
    <contour>
      <point x="64" y="433" type="qcurve"/>
      <point x="64" y="495"/>
      <point x="110" y="597"/>
      <point x="194" y="670"/>
      <point x="313" y="710"/>
      <point x="387" y="710" type="qcurve"/>
      <point x="579" y="710" type="line"/>
      <point x="574" y="690" type="line"/>
      <point x="508" y="690" type="line"/>
      <point x="344" y="-80" type="line"/>
      <point x="324" y="-80" type="line"/>
      <point x="394" y="248" type="line"/>
      <point x="308" y="248" type="line"/>
      <point x="238" y="-80" type="line"/>
      <point x="218" y="-80" type="line"/>
      <point x="288" y="248" type="line"/>
      <point x="180" y="250"/>
      <point x="64" y="347"/>
    </contour>
    <contour>
      <point x="84" y="438" type="qcurve"/>
      <point x="84" y="394"/>
      <point x="117" y="332"/>
      <point x="173" y="291"/>
      <point x="249" y="270"/>
      <point x="292" y="268" type="qcurve"/>
      <point x="382" y="690" type="line"/>
      <point x="311" y="690"/>
      <point x="200" y="653"/>
      <point x="124" y="587"/>
      <point x="84" y="494"/>
    </contour>
    <contour>
      <point x="488" y="690" type="line"/>
      <point x="402" y="690" type="line"/>
      <point x="312" y="268" type="line"/>
      <point x="398" y="268" type="line"/>
    </contour>
  </outline>
</glyph>
<glyph name="onesuperior" format="1">
  <advance width="240"/>
  <unicode hex="00B9"/>
  <outline>
    <contour>
      <point x="250" y="441" type="line"/>
      <point x="246" y="422" type="line"/>
      <point x="74" y="422" type="line"/>
      <point x="78" y="441" type="line"/>
      <point x="157" y="441" type="line"/>
      <point x="230" y="785" type="line"/>
      <point x="224" y="779"/>
      <point x="199" y="762"/>
      <point x="170" y="748"/>
      <point x="140" y="738"/>
      <point x="128" y="738" type="qcurve"/>
      <point x="132" y="757" type="line"/>
      <point x="147" y="757"/>
      <point x="183" y="773"/>
      <point x="213" y="793"/>
      <point x="234" y="810"/>
      <point x="235" y="811" type="qcurve"/>
      <point x="255" y="811" type="line"/>
      <point x="176" y="441" type="line"/>
    </contour>
  </outline>
</glyph>
<glyph name="Aring" format="1">
  <advance width="647"/>
  <unicode hex="00C5"/>
  <outline>
    <contour>
      <point x="406" y="710" type="line"/>
      <point x="424" y="710" type="line"/>
      <point x="566" y="0" type="line"/>
      <point x="544" y="0" type="line"/>
      <point x="493" y="254" type="line"/>
      <point x="142" y="254" type="line"/>
      <point x="-17" y="0" type="line"/>
      <point x="-39" y="0" type="line"/>
    </contour>
    <contour>
      <point x="489" y="274" type="line"/>
      <point x="409" y="681" type="line"/>
      <point x="154" y="274" type="line"/>
    </contour>
    <contour>
      <point x="389" y="850" type="qcurve"/>
      <point x="389" y="864"/>
      <point x="400" y="889"/>
      <point x="419" y="907"/>
      <point x="444" y="918"/>
      <point x="457" y="918" type="qcurve"/>
      <point x="477" y="918"/>
      <point x="500" y="892"/>
      <point x="500" y="872" type="qcurve"/>
      <point x="500" y="858"/>
      <point x="489" y="833"/>
      <point x="470" y="815"/>
      <point x="445" y="804"/>
      <point x="432" y="804" type="qcurve"/>
      <point x="412" y="804"/>
      <point x="389" y="830"/>
    </contour>
    <contour>
      <point x="453" y="902" type="qcurve"/>
      <point x="435" y="902"/>
      <point x="405" y="875"/>
      <point x="405" y="853" type="qcurve"/>
      <point x="405" y="839"/>
      <point x="422" y="820"/>
      <point x="436" y="820" type="qcurve"/>
      <point x="452" y="820"/>
      <point x="485" y="848"/>
      <point x="485" y="869" type="qcurve"/>
      <point x="485" y="884"/>
      <point x="467" y="902"/>
    </contour>
  </outline>
</glyph>
<glyph name="Ccedilla" format="1">
  <advance width="660"/>
  <unicode hex="00C7"/>
  <outline>
    <contour>
      <point x="199" y="-125" type="line"/>
      <point x="213" y="-132"/>
      <point x="254" y="-143"/>
      <point x="278" y="-143" type="qcurve"/>
      <point x="343" y="-143"/>
      <point x="343" y="-96" type="qcurve"/>
      <point x="343" y="-80"/>
      <point x="321" y="-67"/>
      <point x="304" y="-67" type="qcurve"/>
      <point x="284" y="-67"/>
      <point x="238" y="-78"/>
      <point x="224" y="-83" type="qcurve"/>
      <point x="282" y="-5" type="line"/>
      <point x="226" y="-3"/>
      <point x="140" y="49"/>
      <point x="80" y="131"/>
      <point x="49" y="237"/>
      <point x="49" y="293" type="qcurve"/>
      <point x="49" y="365"/>
      <point x="109" y="515"/>
      <point x="217" y="637"/>
      <point x="364" y="714"/>
      <point x="451" y="714" type="qcurve"/>
      <point x="496" y="714"/>
      <point x="568" y="691"/>
      <point x="621" y="650"/>
      <point x="656" y="593"/>
      <point x="664" y="559" type="qcurve"/>
      <point x="644" y="553" type="line"/>
      <point x="633" y="592"/>
      <point x="591" y="646"/>
      <point x="538" y="679"/>
      <point x="475" y="694"/>
      <point x="443" y="694" type="qcurve"/>
      <point x="362" y="694"/>
      <point x="225" y="621"/>
      <point x="125" y="505"/>
      <point x="69" y="362"/>
      <point x="69" y="293" type="qcurve"/>
      <point x="69" y="236"/>
      <point x="102" y="135"/>
      <point x="162" y="59"/>
      <point x="248" y="14"/>
      <point x="301" y="14" type="qcurve"/>
      <point x="334" y="14"/>
      <point x="408" y="32"/>
      <point x="481" y="68"/>
      <point x="549" y="125"/>
      <point x="577" y="164" type="qcurve"/>
      <point x="595" y="159" type="line"/>
      <point x="570" y="120"/>
      <point x="501" y="61"/>
      <point x="424" y="19"/>
      <point x="343" y="-4"/>
      <point x="305" y="-5" type="qcurve"/>
      <point x="266" y="-57" type="line"/>
      <point x="277" y="-53"/>
      <point x="300" y="-51"/>
      <point x="308" y="-51" type="qcurve"/>
      <point x="362" y="-51"/>
      <point x="362" y="-93" type="qcurve"/>
      <point x="362" y="-128"/>
      <point x="313" y="-162"/>
      <point x="271" y="-162" type="qcurve"/>
      <point x="246" y="-162"/>
      <point x="203" y="-151"/>
      <point x="186" y="-143" type="qcurve"/>
    </contour>
  </outline>
</glyph>
<glyph name="Eacute" format="1">
  <advance width="588"/>
  <unicode hex="00C9"/>
  <outline>
    <contour>
      <point x="184" y="710" type="line"/>
      <point x="618" y="710" type="line"/>
      <point x="614" y="690" type="line"/>
      <point x="200" y="690" type="line"/>
      <point x="132" y="373" type="line"/>
      <point x="495" y="373" type="line"/>
      <point x="491" y="353" type="line"/>
      <point x="128" y="353" type="line"/>
      <point x="57" y="20" type="line"/>
      <point x="480" y="20" type="line"/>
      <point x="476" y="0" type="line"/>
      <point x="33" y="0" type="line"/>
    </contour>
    <contour>
      <point x="398" y="833" type="line"/>
      <point x="385" y="845" type="line"/>
      <point x="461" y="918" type="line"/>
      <point x="494" y="918" type="line"/>
    </contour>
  </outline>
</glyph>
<glyph name="Icircumflex" format="1">
  <advance width="214"/>
  <unicode hex="00CE"/>
  <outline>
    <contour>
      <point x="184" y="709" type="line"/>
      <point x="204" y="709" type="line"/>
      <point x="53" y="0" type="line"/>
      <point x="33" y="0" type="line"/>
    </contour>
    <contour>
      <point x="126" y="844" type="line"/>
      <point x="230" y="918" type="line"/>
      <point x="246" y="918" type="line"/>
      <point x="319" y="844" type="line"/>
      <point x="301" y="832" type="line"/>
      <point x="233" y="895" type="line"/>
      <point x="139" y="832" type="line"/>
    </contour>
  </outline>
</glyph>
<glyph name="Ugrave" format="1">
  <advance width="724"/>
  <unicode hex="00D9"/>
  <outline>
    <contour>
      <point x="298" y="-5" type="qcurve"/>
      <point x="237" y="-5"/>
      <point x="155" y="31"/>
      <point x="105" y="94"/>
      <point x="83" y="178"/>
      <point x="83" y="226" type="qcurve"/>
      <point x="83" y="257"/>
      <point x="91" y="322"/>
      <point x="98" y="355" type="qcurve"/>
      <point x="173" y="710" type="line"/>
      <point x="193" y="710" type="line"/>
      <point x="118" y="355" type="line"/>
      <point x="111" y="323"/>
      <point x="103" y="259"/>
      <point x="103" y="229" type="qcurve"/>
      <point x="103" y="184"/>
      <point x="123" y="106"/>
      <point x="169" y="48"/>
      <point x="245" y="15"/>
      <point x="301" y="15" type="qcurve"/>
      <point x="377" y="15"/>
      <point x="489" y="75"/>
      <point x="568" y="171"/>
      <point x="617" y="293"/>
      <point x="630" y="355" type="qcurve"/>
      <point x="705" y="710" type="line"/>
      <point x="725" y="710" type="line"/>
      <point x="650" y="355" type="line"/>
      <point x="635" y="284"/>
      <point x="579" y="154"/>
      <point x="494" y="55"/>
      <point x="376" y="-5"/>
    </contour>
    <contour>
      <point x="427" y="918" type="line"/>
      <point x="459" y="918" type="line"/>
      <point x="505" y="845" type="line"/>
      <point x="487" y="833" type="line"/>
    </contour>
  </outline>
</glyph>
<glyph name="aacute" format="1">
  <advance width="580"/>
  <unicode hex="00E1"/>
  <outline>
    <contour>
      <point x="216" y="-10" type="qcurve"/>
      <point x="173" y="-10"/>
      <point x="104" y="27"/>
      <point x="56" y="88"/>
      <point x="31" y="168"/>
      <point x="31" y="210" type="qcurve"/>
      <point x="31" y="270"/>
      <point x="79" y="384"/>
      <point x="160" y="473"/>
      <point x="265" y="527"/>
      <point x="321" y="527" type="qcurve"/>
      <point x="356" y="527"/>
      <point x="413" y="506"/>
      <point x="456" y="471"/>
      <point x="488" y="424"/>
      <point x="497" y="398" type="qcurve"/>
      <point x="523" y="519" type="line"/>
      <point x="544" y="519" type="line"/>
      <point x="442" y="44" type="line"/>
      <point x="440" y="38"/>
      <point x="440" y="32" type="qcurve"/>
      <point x="440" y="20"/>
      <point x="452" y="20" type="qcurve"/>
      <point x="448" y="0" type="line"/>
      <point x="442" y="0"/>
      <point x="439" y="1" type="qcurve"/>
      <point x="420" y="7"/>
      <point x="420" y="29" type="qcurve"/>
      <point x="420" y="31"/>
      <point x="421" y="37"/>
      <point x="424" y="52"/>
      <point x="430" y="82"/>
      <point x="435" y="108" type="qcurve"/>
      <point x="414" y="82"/>
      <point x="362" y="39"/>
      <point x="305" y="7"/>
      <point x="245" y="-10"/>
    </contour>
    <contour>
      <point x="218" y="10" type="qcurve"/>
      <point x="250" y="10"/>
      <point x="323" y="36"/>
      <point x="389" y="80"/>
      <point x="439" y="137"/>
      <point x="448" y="169" type="qcurve"/>
      <point x="488" y="356" type="line"/>
      <point x="484" y="386"/>
      <point x="455" y="440"/>
      <point x="409" y="482"/>
      <point x="348" y="507"/>
      <point x="313" y="507" type="qcurve"/>
      <point x="261" y="507"/>
      <point x="166" y="454"/>
      <point x="94" y="368"/>
      <point x="51" y="262"/>
      <point x="51" y="210" type="qcurve"/>
      <point x="51" y="170"/>
      <point x="76" y="98"/>
      <point x="121" y="43"/>
      <point x="182" y="10"/>
    </contour>
    <contour>
      <point x="341" y="645" type="line"/>
      <point x="328" y="657" type="line"/>
      <point x="404" y="730" type="line"/>
      <point x="437" y="730" type="line"/>
    </contour>
  </outline>
</glyph>
<glyph name="atilde" format="1">
  <advance width="580"/>
  <unicode hex="00E3"/>
  <outline>
    <contour>
      <point x="216" y="-10" type="qcurve"/>
      <point x="173" y="-10"/>
      <point x="104" y="27"/>
      <point x="56" y="88"/>
      <point x="31" y="168"/>
      <point x="31" y="210" type="qcurve"/>
      <point x="31" y="270"/>
      <point x="79" y="384"/>
      <point x="160" y="473"/>
      <point x="265" y="527"/>
      <point x="321" y="527" type="qcurve"/>
      <point x="356" y="527"/>
      <point x="413" y="506"/>
      <point x="456" y="471"/>
      <point x="488" y="424"/>
      <point x="497" y="398" type="qcurve"/>
      <point x="523" y="519" type="line"/>
      <point x="544" y="519" type="line"/>
      <point x="442" y="44" type="line"/>
      <point x="440" y="38"/>
      <point x="440" y="32" type="qcurve"/>
      <point x="440" y="20"/>
      <point x="452" y="20" type="qcurve"/>
      <point x="448" y="0" type="line"/>
      <point x="442" y="0"/>
      <point x="439" y="1" type="qcurve"/>
      <point x="420" y="7"/>
      <point x="420" y="29" type="qcurve"/>
      <point x="420" y="31"/>
      <point x="421" y="37"/>
      <point x="424" y="52"/>
      <point x="430" y="82"/>
      <point x="435" y="108" type="qcurve"/>
      <point x="414" y="82"/>
      <point x="362" y="39"/>
      <point x="305" y="7"/>
      <point x="245" y="-10"/>
    </contour>
    <contour>
      <point x="218" y="10" type="qcurve"/>
      <point x="250" y="10"/>
      <point x="323" y="36"/>
      <point x="389" y="80"/>
      <point x="439" y="137"/>
      <point x="448" y="169" type="qcurve"/>
      <point x="488" y="356" type="line"/>
      <point x="484" y="386"/>
      <point x="455" y="440"/>
      <point x="409" y="482"/>
      <point x="348" y="507"/>
      <point x="313" y="507" type="qcurve"/>
      <point x="261" y="507"/>
      <point x="166" y="454"/>
      <point x="94" y="368"/>
      <point x="51" y="262"/>
      <point x="51" y="210" type="qcurve"/>
      <point x="51" y="170"/>
      <point x="76" y="98"/>
      <point x="121" y="43"/>
      <point x="182" y="10"/>
    </contour>
    <contour>
      <point x="417" y="663" type="qcurve"/>
      <point x="396" y="663"/>
      <point x="367" y="675"/>
      <point x="343" y="689"/>
      <point x="321" y="701"/>
      <point x="306" y="701" type="qcurve"/>
      <point x="291" y="701"/>
      <point x="269" y="688"/>
      <point x="255" y="671"/>
      <point x="248" y="655"/>
      <point x="247" y="653" type="qcurve"/>
      <point x="228" y="653" type="line"/>
      <point x="228" y="655"/>
      <point x="237" y="677"/>
      <point x="256" y="701"/>
      <point x="288" y="720"/>
      <point x="312" y="720" type="qcurve"/>
      <point x="330" y="720"/>
      <point x="356" y="708"/>
      <point x="379" y="694"/>
      <point x="405" y="682"/>
      <point x="423" y="682" type="qcurve"/>
      <point x="442" y="682"/>
      <point x="468" y="696"/>
      <point x="483" y="713"/>
      <point x="489" y="728"/>
      <point x="489" y="730" type="qcurve"/>
      <point x="508" y="730" type="line"/>
      <point x="507" y="727"/>
      <point x="498" y="705"/>
      <point x="477" y="681"/>
      <point x="443" y="663"/>
    </contour>
  </outline>
</glyph>
<glyph name="eacute" format="1">
  <advance width="521"/>
  <unicode hex="00E9"/>
  <outline>
    <contour>
      <point x="220" y="-10" type="qcurve"/>
      <point x="175" y="-10"/>
      <point x="105" y="25"/>
      <point x="57" y="85"/>
      <point x="31" y="165"/>
      <point x="31" y="210" type="qcurve"/>
      <point x="31" y="269"/>
      <point x="77" y="383"/>
      <point x="158" y="472"/>
      <point x="268" y="527"/>
      <point x="333" y="527" type="qcurve"/>
      <point x="358" y="527"/>
      <point x="413" y="509"/>
      <point x="457" y="475"/>
      <point x="486" y="424"/>
      <point x="486" y="390" type="qcurve"/>
      <point x="486" y="248"/>
      <point x="224" y="248" type="qcurve"/>
      <point x="186" y="248"/>
      <point x="106" y="250"/>
      <point x="55" y="253" type="qcurve"/>
      <point x="52" y="232"/>
      <point x="52" y="211" type="qcurve"/>
      <point x="52" y="170"/>
      <point x="74" y="97"/>
      <point x="118" y="42"/>
      <point x="184" y="10"/>
      <point x="227" y="10" type="qcurve"/>
      <point x="254" y="10"/>
      <point x="312" y="27"/>
      <point x="366" y="57"/>
      <point x="411" y="101"/>
      <point x="426" y="128" type="qcurve"/>
      <point x="445" y="122" type="line"/>
      <point x="428" y="92"/>
      <point x="379" y="43"/>
      <point x="320" y="9"/>
      <point x="254" y="-10"/>
    </contour>
    <contour>
      <point x="329" y="507" type="qcurve"/>
      <point x="280" y="507"/>
      <point x="192" y="468"/>
      <point x="121" y="403"/>
      <point x="70" y="318"/>
      <point x="59" y="273" type="qcurve"/>
      <point x="110" y="270"/>
      <point x="189" y="268"/>
      <point x="227" y="268" type="qcurve"/>
      <point x="293" y="268"/>
      <point x="384" y="286"/>
      <point x="440" y="319"/>
      <point x="465" y="364"/>
      <point x="465" y="391" type="qcurve"/>
      <point x="465" y="421"/>
      <point x="439" y="465"/>
      <point x="399" y="494"/>
      <point x="351" y="507"/>
    </contour>
    <contour>
      <point x="330" y="645" type="line"/>
      <point x="317" y="657" type="line"/>
      <point x="393" y="730" type="line"/>
      <point x="426" y="730" type="line"/>
    </contour>
  </outline>
</glyph>
<glyph name="ucircumflex" format="1">
  <advance width="551"/>
  <unicode hex="00FB"/>
  <outline>
    <contour>
      <point x="167" y="-10" type="qcurve"/>
      <point x="47" y="-10"/>
      <point x="47" y="129" type="qcurve"/>
      <point x="47" y="172"/>
      <point x="59" y="228" type="qcurve"/>
      <point x="121" y="519" type="line"/>
      <point x="141" y="519" type="line"/>
      <point x="79" y="228" type="line"/>
      <point x="67" y="172"/>
      <point x="67" y="131" type="qcurve"/>
      <point x="67" y="10"/>
      <point x="172" y="10" type="qcurve"/>
      <point x="208" y="10"/>
      <point x="281" y="37"/>
      <point x="348" y="84"/>
      <point x="405" y="150"/>
      <point x="424" y="189" type="qcurve"/>
      <point x="494" y="519" type="line"/>
      <point x="514" y="519" type="line"/>
      <point x="418" y="67" type="line"/>
      <point x="416" y="56"/>
      <point x="411" y="36"/>
      <point x="411" y="34" type="qcurve"/>
      <point x="411" y="20"/>
      <point x="424" y="20" type="qcurve"/>
      <point x="419" y="0" type="line"/>
      <point x="413" y="0"/>
      <point x="407" y="2" type="qcurve"/>
      <point x="392" y="8"/>
      <point x="392" y="29" type="qcurve"/>
      <point x="392" y="30"/>
      <point x="393" y="36"/>
      <point x="396" y="56"/>
      <point x="404" y="96"/>
      <point x="412" y="132" type="qcurve"/>
      <point x="389" y="99"/>
      <point x="332" y="47"/>
      <point x="268" y="10"/>
      <point x="200" y="-10"/>
    </contour>
    <contour>
      <point x="245" y="656" type="line"/>
      <point x="349" y="730" type="line"/>
      <point x="365" y="730" type="line"/>
      <point x="438" y="656" type="line"/>
      <point x="420" y="644" type="line"/>
      <point x="352" y="707" type="line"/>
      <point x="258" y="644" type="line"/>
    </contour>
  </outline>
</glyph>
<glyph name="thorn" format="1">
  <advance width="576"/>
  <unicode hex="00FE"/>
  <outline>
    <contour>
      <point x="168" y="710" type="line"/>
      <point x="188" y="710" type="line"/>
      <point x="122" y="398" type="line"/>
      <point x="172" y="455"/>
      <point x="285" y="527"/>
      <point x="351" y="527" type="qcurve"/>
      <point x="396" y="527"/>
      <point x="462" y="492"/>
      <point x="507" y="435"/>
      <point x="529" y="361"/>
      <point x="529" y="321" type="qcurve"/>
      <point x="529" y="264"/>
      <point x="486" y="146"/>
      <point x="408" y="50"/>
      <point x="300" y="-10"/>
      <point x="236" y="-10" type="qcurve"/>
      <point x="168" y="-10"/>
      <point x="81" y="56"/>
      <point x="60" y="108" type="qcurve"/>
      <point x="-8" y="-213" type="line"/>
      <point x="-28" y="-213" type="line"/>
    </contour>
    <contour>
      <point x="243" y="10" type="qcurve"/>
      <point x="292" y="10"/>
      <point x="387" y="58"/>
      <point x="462" y="142"/>
      <point x="508" y="253"/>
      <point x="508" y="316" type="qcurve"/>
      <point x="508" y="357"/>
      <point x="487" y="427"/>
      <point x="446" y="478"/>
      <point x="386" y="507"/>
      <point x="347" y="507" type="qcurve"/>
      <point x="312" y="507"/>
      <point x="246" y="483"/>
      <point x="187" y="442"/>
      <point x="134" y="387"/>
      <point x="113" y="356" type="qcurve"/>
      <point x="73" y="169" type="line"/>
      <point x="71" y="163"/>
      <point x="71" y="156"/>
      <point x="71" y="154" type="qcurve"/>
      <point x="71" y="124"/>
      <point x="100" y="71"/>
      <point x="148" y="32"/>
      <point x="210" y="10"/>
    </contour>
  </outline>
</glyph>
<glyph name="Aogonek" format="1">
  <advance width="647"/>
  <unicode hex="0104"/>
  <outline>
    <contour>
      <point x="485" y="-159" type="line"/>
      <point x="466" y="-154"/>
      <point x="447" y="-127"/>
      <point x="447" y="-110" type="qcurve"/>
      <point x="447" y="-82"/>
      <point x="489" y="-31"/>
      <point x="543" y="4" type="qcurve"/>
      <point x="493" y="254" type="line"/>
      <point x="142" y="254" type="line"/>
      <point x="-17" y="0" type="line"/>
      <point x="-39" y="0" type="line"/>
      <point x="406" y="710" type="line"/>
      <point x="424" y="710" type="line"/>
      <point x="566" y="0" type="line"/>
      <point x="537" y="-18"/>
      <point x="498" y="-47"/>
      <point x="476" y="-71"/>
      <point x="467" y="-93"/>
      <point x="467" y="-105" type="qcurve"/>
      <point x="467" y="-134"/>
      <point x="501" y="-142" type="qcurve"/>
    </contour>
    <contour>
      <point x="489" y="274" type="line"/>
      <point x="409" y="681" type="line"/>
      <point x="154" y="274" type="line"/>
    </contour>
  </outline>
</glyph>
<glyph name="ccircumflex" format="1">
  <advance width="514"/>
  <unicode hex="0109"/>
  <outline>
    <contour>
      <point x="219" y="-10" type="qcurve"/>
      <point x="177" y="-10"/>
      <point x="108" y="24"/>
      <point x="58" y="84"/>
      <point x="31" y="164"/>
      <point x="31" y="210" type="qcurve"/>
      <point x="31" y="274"/>
      <point x="81" y="390"/>
      <point x="165" y="476"/>
      <point x="274" y="527"/>
      <point x="332" y="527" type="qcurve"/>
      <point x="395" y="527"/>
      <point x="479" y="466"/>
      <point x="493" y="411" type="qcurve"/>
      <point x="471" y="404" type="line"/>
      <point x="457" y="452"/>
      <point x="379" y="507"/>
      <point x="325" y="507" type="qcurve"/>
      <point x="273" y="507"/>
      <point x="174" y="460"/>
      <point x="98" y="380"/>
      <point x="51" y="273"/>
      <point x="51" y="214" type="qcurve"/>
      <point x="51" y="172"/>
      <point x="76" y="97"/>
      <point x="120" y="42"/>
      <point x="182" y="10"/>
      <point x="220" y="10" type="qcurve"/>
      <point x="249" y="10"/>
      <point x="310" y="28"/>
      <point x="364" y="58"/>
      <point x="407" y="98"/>
      <point x="417" y="119" type="qcurve"/>
      <point x="436" y="113" type="line"/>
      <point x="422" y="87"/>
      <point x="375" y="42"/>
      <point x="316" y="9"/>
      <point x="251" y="-10"/>
    </contour>
    <contour>
      <point x="271" y="656" type="line"/>
      <point x="375" y="730" type="line"/>
      <point x="391" y="730" type="line"/>
      <point x="464" y="656" type="line"/>
      <point x="446" y="644" type="line"/>
      <point x="378" y="707" type="line"/>
      <point x="284" y="644" type="line"/>
    </contour>
  </outline>
</glyph>
<glyph name="Cdotaccent" format="1">
  <advance width="663"/>
  <unicode hex="010A"/>
  <outline>
    <contour>
      <point x="296" y="-6" type="qcurve"/>
      <point x="238" y="-6"/>
      <point x="147" y="44"/>
      <point x="85" y="128"/>
      <point x="52" y="236"/>
      <point x="52" y="293" type="qcurve"/>
      <point x="52" y="365"/>
      <point x="112" y="515"/>
      <point x="220" y="637"/>
      <point x="367" y="714"/>
      <point x="454" y="714" type="qcurve"/>
      <point x="499" y="714"/>
      <point x="571" y="691"/>
      <point x="624" y="650"/>
      <point x="659" y="593"/>
      <point x="667" y="559" type="qcurve"/>
      <point x="647" y="553" type="line"/>
      <point x="636" y="592"/>
      <point x="594" y="646"/>
      <point x="541" y="679"/>
      <point x="478" y="694"/>
      <point x="446" y="694" type="qcurve"/>
      <point x="365" y="694"/>
      <point x="228" y="621"/>
      <point x="128" y="505"/>
      <point x="72" y="362"/>
      <point x="72" y="293" type="qcurve"/>
      <point x="72" y="236"/>
      <point x="105" y="135"/>
      <point x="165" y="59"/>
      <point x="251" y="14"/>
      <point x="304" y="14" type="qcurve"/>
      <point x="337" y="14"/>
      <point x="411" y="32"/>
      <point x="484" y="68"/>
      <point x="552" y="125"/>
      <point x="580" y="164" type="qcurve"/>
      <point x="598" y="159" type="line"/>
      <point x="572" y="119"/>
      <point x="500" y="57"/>
      <point x="419" y="15"/>
      <point x="335" y="-6"/>
    </contour>
    <contour>
      <point x="478" y="841" type="line"/>
      <point x="494" y="918" type="line"/>
      <point x="514" y="918" type="line"/>
      <point x="498" y="841" type="line"/>
    </contour>
  </outline>
</glyph>
<glyph name="Eogonek" format="1">
  <advance width="588"/>
  <unicode hex="0118"/>
  <outline>
    <contour>
      <point x="184" y="710" type="line"/>
      <point x="618" y="710" type="line"/>
      <point x="614" y="690" type="line"/>
      <point x="200" y="690" type="line"/>
      <point x="132" y="373" type="line"/>
      <point x="495" y="373" type="line"/>
      <point x="491" y="353" type="line"/>
      <point x="128" y="353" type="line"/>
      <point x="57" y="20" type="line"/>
      <point x="480" y="20" type="line"/>
      <point x="476" y="0" type="line"/>
      <point x="278" y="0" type="line"/>
      <point x="249" y="-18"/>
      <point x="210" y="-47"/>
      <point x="188" y="-71"/>
      <point x="179" y="-93"/>
      <point x="179" y="-105" type="qcurve"/>
      <point x="179" y="-134"/>
      <point x="213" y="-142" type="qcurve"/>
      <point x="197" y="-159" type="line"/>
      <point x="178" y="-154"/>
      <point x="159" y="-127"/>
      <point x="159" y="-110" type="qcurve"/>
      <point x="159" y="-83"/>
      <point x="198" y="-34"/>
      <point x="248" y="0" type="qcurve"/>
      <point x="33" y="0" type="line"/>
    </contour>
  </outline>
</glyph>
<glyph name="ibreve" format="1">
  <advance width="182"/>
  <unicode hex="012D"/>
  <outline>
    <contour>
      <point x="127" y="519" type="line"/>
      <point x="147" y="519" type="line"/>
      <point x="37" y="0" type="line"/>
      <point x="17" y="0" type="line"/>
    </contour>
    <contour>
      <point x="161" y="670" type="qcurve"/>
      <point x="181" y="670"/>
      <point x="219" y="705"/>
      <point x="227" y="730" type="qcurve"/>
      <point x="245" y="730" type="line"/>
      <point x="242" y="715"/>
      <point x="224" y="687"/>
      <point x="200" y="666"/>
      <point x="172" y="653"/>
      <point x="158" y="653" type="qcurve"/>
      <point x="133" y="653"/>
      <point x="101" y="689"/>
      <point x="101" y="715" type="qcurve"/>
      <point x="101" y="720"/>
      <point x="103" y="730" type="qcurve"/>
      <point x="122" y="730" type="line"/>
      <point x="121" y="726"/>
      <point x="121" y="719" type="qcurve"/>
      <point x="121" y="699"/>
      <point x="144" y="670"/>
    </contour>
  </outline>
</glyph>
<glyph name="Idotaccent" format="1">
  <advance width="214"/>
  <unicode hex="0130"/>
  <outline>
    <contour>
      <point x="184" y="709" type="line"/>
      <point x="204" y="709" type="line"/>
      <point x="53" y="0" type="line"/>
      <point x="33" y="0" type="line"/>
    </contour>
    <contour>
      <point x="211" y="841" type="line"/>
      <point x="227" y="918" type="line"/>
      <point x="247" y="918" type="line"/>
      <point x="231" y="841" type="line"/>
    </contour>
  </outline>
</glyph>
<glyph name="jcircumflex" format="1">
  <advance width="182"/>
  <unicode hex="0135"/>
  <outline>
    <contour>
      <point x="-126" y="-170" type="qcurve"/>
      <point x="-154" y="-170"/>
      <point x="-200" y="-156"/>
      <point x="-214" y="-136" type="qcurve"/>
      <point x="-196" y="-124" type="line"/>
      <point x="-182" y="-140"/>
      <point x="-143" y="-150"/>
      <point x="-123" y="-150" type="qcurve"/>
      <point x="-104" y="-150"/>
      <point x="-61" y="-132"/>
      <point x="-24" y="-102"/>
      <point x="4" y="-60"/>
      <point x="9" y="-36" type="qcurve"/>
      <point x="127" y="519" type="line"/>
      <point x="147" y="519" type="line"/>
      <point x="29" y="-36" type="line"/>
      <point x="23" y="-65"/>
      <point x="-11" y="-114"/>
      <point x="-55" y="-150"/>
      <point x="-104" y="-170"/>
    </contour>
    <contour>
      <point x="64" y="656" type="line"/>
      <point x="168" y="730" type="line"/>
      <point x="184" y="730" type="line"/>
      <point x="257" y="656" type="line"/>
      <point x="239" y="644" type="line"/>
      <point x="171" y="707" type="line"/>
      <point x="77" y="644" type="line"/>
    </contour>
  </outline>
</glyph>
<glyph name="kgreenlandic" format="1">
  <advance width="484"/>
  <unicode hex="0138"/>
  <outline>
    <contour>
      <point x="127" y="519" type="line"/>
      <point x="147" y="519" type="line"/>
      <point x="79" y="196" type="line"/>
      <point x="482" y="517" type="line"/>
      <point x="509" y="517" type="line"/>
      <point x="251" y="311" type="line"/>
      <point x="404" y="0" type="line"/>
      <point x="380" y="0" type="line"/>
      <point x="233" y="297" type="line"/>
      <point x="73" y="169" type="line"/>
      <point x="37" y="0" type="line"/>
      <point x="17" y="0" type="line"/>
    </contour>
  </outline>
</glyph>
<glyph name="Ncaron" format="1">
  <advance width="743"/>
  <unicode hex="0147"/>
  <outline>
    <contour>
      <point x="184" y="710" type="line"/>
      <point x="199" y="710" type="line"/>
      <point x="569" y="29" type="line"/>
      <point x="713" y="709" type="line"/>
      <point x="733" y="709" type="line"/>
      <point x="582" y="0" type="line"/>
      <point x="560" y="0" type="line"/>
      <point x="196" y="671" type="line"/>
      <point x="53" y="0" type="line"/>
      <point x="33" y="0" type="line"/>
    </contour>
    <contour>
      <point x="407" y="906" type="line"/>
      <point x="425" y="918" type="line"/>
      <point x="493" y="855" type="line"/>
      <point x="587" y="918" type="line"/>
      <point x="600" y="906" type="line"/>
      <point x="496" y="832" type="line"/>
      <point x="480" y="832" type="line"/>
    </contour>
  </outline>
</glyph>
<glyph name="Eng" format="1">
  <advance width="744"/>
  <unicode hex="014A"/>
  <outline>
    <contour>
      <point x="419" y="-170" type="qcurve"/>
      <point x="391" y="-170"/>
      <point x="346" y="-156"/>
      <point x="331" y="-136" type="qcurve"/>
      <point x="349" y="-124" type="line"/>
      <point x="363" y="-140"/>
      <point x="403" y="-150"/>
      <point x="423" y="-150" type="qcurve"/>
      <point x="442" y="-150"/>
      <point x="485" y="-132"/>
      <point x="522" y="-102"/>
      <point x="550" y="-60"/>
      <point x="555" y="-36" type="qcurve"/>
      <point x="562" y="-4" type="line"/>
      <point x="196" y="671" type="line"/>
      <point x="53" y="0" type="line"/>
      <point x="33" y="0" type="line"/>
      <point x="184" y="710" type="line"/>
      <point x="199" y="710" type="line"/>
      <point x="568" y="29" type="line"/>
      <point x="713" y="709" type="line"/>
      <point x="733" y="709" type="line"/>
      <point x="575" y="-36" type="line"/>
      <point x="569" y="-65"/>
      <point x="535" y="-114"/>
      <point x="491" y="-150"/>
      <point x="441" y="-170"/>
    </contour>
  </outline>
</glyph>
<glyph name="rcaron" format="1">
  <advance width="317"/>
  <unicode hex="0159"/>
  <outline>
    <contour>
      <point x="127" y="519" type="line"/>
      <point x="147" y="519" type="line"/>
      <point x="119" y="385" type="line"/>
      <point x="160" y="446"/>
      <point x="266" y="513"/>
      <point x="320" y="518" type="qcurve"/>
      <point x="325" y="519"/>
      <point x="334" y="519"/>
      <point x="339" y="519" type="qcurve"/>
      <point x="335" y="499" type="line"/>
      <point x="264" y="496"/>
      <point x="143" y="406"/>
      <point x="107" y="328" type="qcurve"/>
      <point x="37" y="0" type="line"/>
      <point x="17" y="0" type="line"/>
    </contour>
    <contour>
      <point x="159" y="718" type="line"/>
      <point x="177" y="730" type="line"/>
      <point x="245" y="667" type="line"/>
      <point x="339" y="730" type="line"/>
      <point x="352" y="718" type="line"/>
      <point x="248" y="644" type="line"/>
      <point x="232" y="644" type="line"/>
    </contour>
  </outline>
</glyph>
<glyph name="uni0162" format="1">
  <advance width="573"/>
  <unicode hex="0162"/>
  <outline>
    <contour>
      <point x="117" y="-125" type="line"/>
      <point x="131" y="-132"/>
      <point x="172" y="-143"/>
      <point x="196" y="-143" type="qcurve"/>
      <point x="261" y="-143"/>
      <point x="261" y="-96" type="qcurve"/>
      <point x="261" y="-80"/>
      <point x="239" y="-67"/>
      <point x="222" y="-67" type="qcurve"/>
      <point x="202" y="-67"/>
      <point x="156" y="-78"/>
      <point x="142" y="-83" type="qcurve"/>
      <point x="209" y="6" type="line"/>
      <point x="355" y="690" type="line"/>
      <point x="97" y="690" type="line"/>
      <point x="101" y="710" type="line"/>
      <point x="637" y="710" type="line"/>
      <point x="633" y="690" type="line"/>
      <point x="375" y="690" type="line"/>
      <point x="228" y="0" type="line"/>
      <point x="184" y="-57" type="line"/>
      <point x="195" y="-53"/>
      <point x="218" y="-51"/>
      <point x="226" y="-51" type="qcurve"/>
      <point x="280" y="-51"/>
      <point x="280" y="-93" type="qcurve"/>
      <point x="280" y="-128"/>
      <point x="231" y="-162"/>
      <point x="189" y="-162" type="qcurve"/>
      <point x="164" y="-162"/>
      <point x="121" y="-151"/>
      <point x="104" y="-143" type="qcurve"/>
    </contour>
  </outline>
</glyph>
<glyph name="tbar" format="1">
  <advance width="283"/>
  <unicode hex="0167"/>
  <outline>
    <contour>
      <point x="40" y="359" type="line"/>
      <point x="111" y="359" type="line"/>
      <point x="141" y="499" type="line"/>
      <point x="70" y="499" type="line"/>
      <point x="74" y="519" type="line"/>
      <point x="145" y="519" type="line"/>
      <point x="184" y="700" type="line"/>
      <point x="204" y="700" type="line"/>
      <point x="165" y="519" type="line"/>
      <point x="284" y="519" type="line"/>
      <point x="280" y="499" type="line"/>
      <point x="161" y="499" type="line"/>
      <point x="131" y="359" type="line"/>
      <point x="250" y="359" type="line"/>
      <point x="246" y="339" type="line"/>
      <point x="126" y="339" type="line"/>
      <point x="79" y="116" type="line"/>
      <point x="75" y="98"/>
      <point x="70" y="73"/>
      <point x="70" y="65" type="qcurve"/>
      <point x="70" y="40"/>
      <point x="102" y="15"/>
      <point x="125" y="15" type="qcurve"/>
      <point x="141" y="15"/>
      <point x="171" y="22"/>
      <point x="194" y="31"/>
      <point x="209" y="39"/>
      <point x="210" y="40" type="qcurve"/>
      <point x="217" y="24" type="line"/>
      <point x="216" y="23"/>
      <point x="200" y="14"/>
      <point x="174" y="3"/>
      <point x="139" y="-5"/>
      <point x="120" y="-5" type="qcurve"/>
      <point x="89" y="-5"/>
      <point x="49" y="29"/>
      <point x="49" y="58" type="qcurve"/>
      <point x="49" y="62"/>
      <point x="50" y="70"/>
      <point x="51" y="75" type="qcurve"/>
      <point x="107" y="339" type="line"/>
      <point x="36" y="339" type="line"/>
    </contour>
  </outline>
</glyph>
<glyph name="uring" format="1">
  <advance width="551"/>
  <unicode hex="016F"/>
  <outline>
    <contour>
      <point x="167" y="-10" type="qcurve"/>
      <point x="47" y="-10"/>
      <point x="47" y="129" type="qcurve"/>
      <point x="47" y="172"/>
      <point x="59" y="228" type="qcurve"/>
      <point x="121" y="519" type="line"/>
      <point x="141" y="519" type="line"/>
      <point x="79" y="228" type="line"/>
      <point x="67" y="172"/>
      <point x="67" y="131" type="qcurve"/>
      <point x="67" y="10"/>
      <point x="172" y="10" type="qcurve"/>
      <point x="208" y="10"/>
      <point x="281" y="37"/>
      <point x="348" y="84"/>
      <point x="405" y="150"/>
      <point x="424" y="189" type="qcurve"/>
      <point x="494" y="519" type="line"/>
      <point x="514" y="519" type="line"/>
      <point x="418" y="67" type="line"/>
      <point x="416" y="56"/>
      <point x="411" y="36"/>
      <point x="411" y="34" type="qcurve"/>
      <point x="411" y="20"/>
      <point x="424" y="20" type="qcurve"/>
      <point x="419" y="0" type="line"/>
      <point x="413" y="0"/>
      <point x="407" y="2" type="qcurve"/>
      <point x="392" y="8"/>
      <point x="392" y="29" type="qcurve"/>
      <point x="392" y="30"/>
      <point x="393" y="36"/>
      <point x="396" y="56"/>
      <point x="404" y="96"/>
      <point x="412" y="132" type="qcurve"/>
      <point x="389" y="99"/>
      <point x="332" y="47"/>
      <point x="268" y="10"/>
      <point x="200" y="-10"/>
    </contour>
    <contour>
      <point x="286" y="662" type="qcurve"/>
      <point x="286" y="676"/>
      <point x="297" y="701"/>
      <point x="316" y="719"/>
      <point x="341" y="730"/>
      <point x="354" y="730" type="qcurve"/>
      <point x="374" y="730"/>
      <point x="397" y="704"/>
      <point x="397" y="684" type="qcurve"/>
      <point x="397" y="670"/>
      <point x="386" y="645"/>
      <point x="367" y="627"/>
      <point x="342" y="616"/>
      <point x="329" y="616" type="qcurve"/>
      <point x="309" y="616"/>
      <point x="286" y="642"/>
    </contour>
    <contour>
      <point x="350" y="714" type="qcurve"/>
      <point x="332" y="714"/>
      <point x="302" y="687"/>
      <point x="302" y="665" type="qcurve"/>
      <point x="302" y="651"/>
      <point x="319" y="632"/>
      <point x="333" y="632" type="qcurve"/>
      <point x="349" y="632"/>
      <point x="382" y="660"/>
      <point x="382" y="681" type="qcurve"/>
      <point x="382" y="696"/>
      <point x="364" y="714"/>
    </contour>
  </outline>
</glyph>
<glyph name="Uogonek" format="1">
  <advance width="724"/>
  <unicode hex="0172"/>
  <outline>
    <contour>
      <point x="230" y="-163" type="line"/>
      <point x="211" y="-158"/>
      <point x="192" y="-131"/>
      <point x="192" y="-114" type="qcurve"/>
      <point x="192" y="-88"/>
      <point x="230" y="-38"/>
      <point x="280" y="-4" type="qcurve"/>
      <point x="224" y="-1"/>
      <point x="149" y="37"/>
      <point x="103" y="99"/>
      <point x="83" y="180"/>
      <point x="83" y="226" type="qcurve"/>
      <point x="83" y="257"/>
      <point x="91" y="322"/>
      <point x="98" y="355" type="qcurve"/>
      <point x="173" y="710" type="line"/>
      <point x="193" y="710" type="line"/>
      <point x="118" y="355" type="line"/>
      <point x="111" y="323"/>
      <point x="103" y="259"/>
      <point x="103" y="229" type="qcurve"/>
      <point x="103" y="184"/>
      <point x="123" y="106"/>
      <point x="169" y="48"/>
      <point x="245" y="15"/>
      <point x="301" y="15" type="qcurve"/>
      <point x="377" y="15"/>
      <point x="489" y="75"/>
      <point x="568" y="171"/>
      <point x="617" y="293"/>
      <point x="630" y="355" type="qcurve"/>
      <point x="705" y="710" type="line"/>
      <point x="725" y="710" type="line"/>
      <point x="650" y="355" type="line"/>
      <point x="635" y="286"/>
      <point x="581" y="158"/>
      <point x="499" y="59"/>
      <point x="385" y="-2"/>
      <point x="310" y="-4" type="qcurve"/>
      <point x="281" y="-22"/>
      <point x="243" y="-51"/>
      <point x="221" y="-75"/>
      <point x="212" y="-97"/>
      <point x="212" y="-109" type="qcurve"/>
      <point x="212" y="-139"/>
      <point x="246" y="-146" type="qcurve"/>
    </contour>
  </outline>
</glyph>
<glyph name="zacute" format="1">
  <advance width="457"/>
  <unicode hex="017A"/>
  <outline>
    <contour>
      <point x="-32" y="20" type="line"/>
      <point x="445" y="499" type="line"/>
      <point x="75" y="499" type="line"/>
      <point x="79" y="519" type="line"/>
      <point x="474" y="519" type="line"/>
      <point x="470" y="499" type="line"/>
      <point x="-6" y="20" type="line"/>
      <point x="365" y="20" type="line"/>
      <point x="360" y="0" type="line"/>
      <point x="-36" y="0" type="line"/>
    </contour>
    <contour>
      <point x="276" y="645" type="line"/>
      <point x="263" y="657" type="line"/>
      <point x="339" y="730" type="line"/>
      <point x="372" y="730" type="line"/>
    </contour>
  </outline>
</glyph>
<glyph name="uni01C5" format="1">
  <advance width="1141"/>
  <unicode hex="01C5"/>
  <outline>
    <contour>
      <point x="184" y="710" type="line"/>
      <point x="401" y="710" type="line"/>
      <point x="466" y="710"/>
      <point x="561" y="668"/>
      <point x="623" y="595"/>
      <point x="653" y="497"/>
      <point x="653" y="440" type="qcurve"/>
      <point x="653" y="345"/>
      <point x="593" y="184"/>
      <point x="485" y="67"/>
      <point x="337" y="0"/>
      <point x="250" y="0" type="qcurve"/>
      <point x="33" y="0" type="line"/>
    </contour>
    <contour>
      <point x="254" y="20" type="line"/>
      <point x="343" y="20"/>
      <point x="484" y="88"/>
      <point x="581" y="203"/>
      <point x="633" y="353"/>
      <point x="633" y="435" type="qcurve"/>
      <point x="633" y="491"/>
      <point x="603" y="585"/>
      <point x="544" y="652"/>
      <point x="455" y="690"/>
      <point x="397" y="690" type="qcurve"/>
      <point x="200" y="690" type="line"/>
      <point x="57" y="20" type="line"/>
    </contour>
    <contour>
      <point x="652" y="20" type="line"/>
      <point x="1129" y="499" type="line"/>
      <point x="759" y="499" type="line"/>
      <point x="763" y="519" type="line"/>
      <point x="1158" y="519" type="line"/>
      <point x="1154" y="499" type="line"/>
      <point x="678" y="20" type="line"/>
      <point x="1049" y="20" type="line"/>
      <point x="1044" y="0" type="line"/>
      <point x="648" y="0" type="line"/>
    </contour>
    <contour>
      <point x="905" y="718" type="line"/>
      <point x="923" y="730" type="line"/>
      <point x="991" y="667" type="line"/>
      <point x="1085" y="730" type="line"/>
      <point x="1098" y="718" type="line"/>
      <point x="994" y="644" type="line"/>
      <point x="978" y="644" type="line"/>
    </contour>
  </outline>
</glyph>
<glyph name="uni01CA" format="1">
  <advance width="1201"/>
  <unicode hex="01CA"/>
  <outline>
    <contour>
      <point x="184" y="710" type="line"/>
      <point x="199" y="710" type="line"/>
      <point x="569" y="29" type="line"/>
      <point x="713" y="709" type="line"/>
      <point x="733" y="709" type="line"/>
      <point x="582" y="0" type="line"/>
      <point x="560" y="0" type="line"/>
      <point x="196" y="671" type="line"/>
      <point x="53" y="0" type="line"/>
      <point x="33" y="0" type="line"/>
    </contour>
    <contour>
      <point x="848" y="-11" type="qcurve"/>
      <point x="763" y="-11"/>
      <point x="711" y="33" type="qcurve"/>
      <point x="725" y="49" type="line"/>
      <point x="771" y="9"/>
      <point x="852" y="9" type="qcurve"/>
      <point x="912" y="9"/>
      <point x="994" y="56"/>
      <point x="1049" y="143"/>
      <point x="1087" y="269"/>
      <point x="1104" y="349" type="qcurve"/>
      <point x="1181" y="709" type="line"/>
      <point x="1201" y="709" type="line"/>
      <point x="1124" y="349" type="line"/>
      <point x="1107" y="268"/>
      <point x="1066" y="135"/>
      <point x="1005" y="41"/>
      <point x="915" y="-11"/>
    </contour>
  </outline>
</glyph>
<glyph name="Uinvertedbreve" format="1">
  <advance width="724"/>
  <unicode hex="0216"/>
  <outline>
    <contour>
      <point x="298" y="-5" type="qcurve"/>
      <point x="237" y="-5"/>
      <point x="155" y="31"/>
      <point x="105" y="94"/>
      <point x="83" y="178"/>
      <point x="83" y="226" type="qcurve"/>
      <point x="83" y="257"/>
      <point x="91" y="322"/>
      <point x="98" y="355" type="qcurve"/>
      <point x="173" y="710" type="line"/>
      <point x="193" y="710" type="line"/>
      <point x="118" y="355" type="line"/>
      <point x="111" y="323"/>
      <point x="103" y="259"/>
      <point x="103" y="229" type="qcurve"/>
      <point x="103" y="184"/>
      <point x="123" y="106"/>
      <point x="169" y="48"/>
      <point x="245" y="15"/>
      <point x="301" y="15" type="qcurve"/>
      <point x="377" y="15"/>
      <point x="489" y="75"/>
      <point x="568" y="171"/>
      <point x="617" y="293"/>
      <point x="630" y="355" type="qcurve"/>
      <point x="705" y="710" type="line"/>
      <point x="725" y="710" type="line"/>
      <point x="650" y="355" type="line"/>
      <point x="635" y="284"/>
      <point x="579" y="154"/>
      <point x="494" y="55"/>
      <point x="376" y="-5"/>
    </contour>
    <contour>
      <point x="408" y="841" type="line"/>
      <point x="411" y="856"/>
      <point x="427" y="883"/>
      <point x="449" y="905"/>
      <point x="478" y="918"/>
      <point x="494" y="918" type="qcurve"/>
      <point x="523" y="918"/>
      <point x="551" y="880"/>
      <point x="551" y="856" type="qcurve"/>
      <point x="551" y="846"/>
      <point x="550" y="841" type="qcurve"/>
      <point x="532" y="841" type="line"/>
      <point x="532" y="844"/>
      <point x="533" y="850"/>
      <point x="533" y="853" type="qcurve"/>
      <point x="533" y="901"/>
      <point x="493" y="901" type="qcurve"/>
      <point x="467" y="901"/>
      <point x="432" y="864"/>
      <point x="427" y="841" type="qcurve"/>
    </contour>
  </outline>
</glyph>
<glyph name="Tdotbelow" format="1">
  <advance width="574"/>
  <unicode hex="1E6C"/>
  <outline>
    <contour>
      <point x="356" y="690" type="line"/>
      <point x="98" y="690" type="line"/>
      <point x="102" y="710" type="line"/>
      <point x="638" y="710" type="line"/>
      <point x="634" y="690" type="line"/>
      <point x="376" y="690" type="line"/>
      <point x="229" y="0" type="line"/>
      <point x="209" y="0" type="line"/>
    </contour>
    <contour>
      <point x="183" y="-127" type="line"/>
      <point x="199" y="-50" type="line"/>
      <point x="219" y="-50" type="line"/>
      <point x="203" y="-127" type="line"/>
    </contour>
  </outline>
</glyph>
<glyph name="tdotbelow" format="1">
  <advance width="281"/>
  <unicode hex="1E6D"/>
  <outline>
    <contour>
      <point x="119" y="-5" type="qcurve"/>
      <point x="88" y="-5"/>
      <point x="48" y="29"/>
      <point x="48" y="58" type="qcurve"/>
      <point x="48" y="62"/>
      <point x="49" y="70"/>
      <point x="50" y="75" type="qcurve"/>
      <point x="140" y="499" type="line"/>
      <point x="69" y="499" type="line"/>
      <point x="73" y="519" type="line"/>
      <point x="145" y="519" type="line"/>
      <point x="183" y="700" type="line"/>
      <point x="203" y="700" type="line"/>
      <point x="165" y="519" type="line"/>
      <point x="283" y="519" type="line"/>
      <point x="279" y="499" type="line"/>
      <point x="160" y="499" type="line"/>
      <point x="80" y="126" type="line"/>
      <point x="74" y="98"/>
      <point x="69" y="73"/>
      <point x="69" y="66" type="qcurve"/>
      <point x="69" y="41"/>
      <point x="101" y="15"/>
      <point x="124" y="15" type="qcurve"/>
      <point x="140" y="15"/>
      <point x="170" y="22"/>
      <point x="193" y="31"/>
      <point x="208" y="39"/>
      <point x="209" y="40" type="qcurve"/>
      <point x="216" y="24" type="line"/>
      <point x="216" y="24"/>
      <point x="200" y="14"/>
      <point x="173" y="4"/>
      <point x="138" y="-5"/>
    </contour>
    <contour>
      <point x="77" y="-127" type="line"/>
      <point x="93" y="-50" type="line"/>
      <point x="113" y="-50" type="line"/>
      <point x="97" y="-127" type="line"/>
    </contour>
  </outline>
</glyph>
<glyph name="Wdieresis" format="1">
  <advance width="986"/>
  <unicode hex="1E84"/>
  <outline>
    <contour>
      <point x="101" y="710" type="line"/>
      <point x="123" y="710" type="line"/>
      <point x="260" y="25" type="line"/>
      <point x="502" y="414" type="line"/>
      <point x="443" y="704" type="line"/>
      <point x="465" y="704" type="line"/>
      <point x="517" y="438" type="line"/>
      <point x="684" y="704" type="line"/>
      <point x="706" y="704" type="line"/>
      <point x="523" y="414" type="line"/>
      <point x="602" y="25" type="line"/>
      <point x="1029" y="710" type="line"/>
      <point x="1051" y="710" type="line"/>
      <point x="607" y="0" type="line"/>
      <point x="585" y="0" type="line"/>
      <point x="508" y="389" type="line"/>
      <point x="265" y="0" type="line"/>
      <point x="243" y="0" type="line"/>
    </contour>
    <contour>
      <point x="533" y="841" type="line"/>
      <point x="549" y="918" type="line"/>
      <point x="569" y="918" type="line"/>
      <point x="553" y="841" type="line"/>
    </contour>
    <contour>
      <point x="644" y="841" type="line"/>
      <point x="660" y="918" type="line"/>
      <point x="680" y="918" type="line"/>
      <point x="664" y="841" type="line"/>
    </contour>
  </outline>
</glyph>
<glyph name="perthousand" format="1">
  <advance width="950"/>
  <unicode hex="2030"/>
  <outline>
    <contour>
      <point x="218" y="444" type="qcurve"/>
      <point x="169" y="444"/>
      <point x="111" y="508"/>
      <point x="111" y="556" type="qcurve"/>
      <point x="111" y="589"/>
      <point x="139" y="648"/>
      <point x="185" y="693"/>
      <point x="243" y="720"/>
      <point x="273" y="720" type="qcurve"/>
      <point x="322" y="720"/>
      <point x="380" y="656"/>
      <point x="380" y="608" type="qcurve"/>
      <point x="380" y="575"/>
      <point x="352" y="515"/>
      <point x="306" y="470"/>
      <point x="248" y="444"/>
    </contour>
    <contour>
      <point x="222" y="464" type="qcurve"/>
      <point x="248" y="464"/>
      <point x="297" y="487"/>
      <point x="336" y="526"/>
      <point x="360" y="577"/>
      <point x="360" y="604" type="qcurve"/>
      <point x="360" y="645"/>
      <point x="308" y="700"/>
      <point x="268" y="700" type="qcurve"/>
      <point x="242" y="700"/>
      <point x="193" y="676"/>
      <point x="155" y="637"/>
      <point x="131" y="586"/>
      <point x="131" y="559" type="qcurve"/>
      <point x="131" y="519"/>
      <point x="181" y="464"/>
    </contour>
    <contour>
      <point x="406" y="-10" type="qcurve"/>
      <point x="357" y="-10"/>
      <point x="299" y="54"/>
      <point x="299" y="102" type="qcurve"/>
      <point x="299" y="135"/>
      <point x="327" y="194"/>
      <point x="373" y="239"/>
      <point x="431" y="266"/>
      <point x="461" y="266" type="qcurve"/>
      <point x="510" y="266"/>
      <point x="568" y="201"/>
      <point x="568" y="153" type="qcurve"/>
      <point x="568" y="120"/>
      <point x="540" y="61"/>
      <point x="494" y="16"/>
      <point x="436" y="-10"/>
    </contour>
    <contour>
      <point x="410" y="10" type="qcurve"/>
      <point x="436" y="10"/>
      <point x="485" y="33"/>
      <point x="524" y="72"/>
      <point x="548" y="123"/>
      <point x="548" y="150" type="qcurve"/>
      <point x="548" y="190"/>
      <point x="498" y="246"/>
      <point x="457" y="246" type="qcurve"/>
      <point x="431" y="246"/>
      <point x="382" y="222"/>
      <point x="343" y="183"/>
      <point x="319" y="132"/>
      <point x="319" y="105" type="qcurve"/>
      <point x="319" y="65"/>
      <point x="368" y="10"/>
    </contour>
    <contour>
      <point x="721" y="-10" type="qcurve"/>
      <point x="673" y="-10"/>
      <point x="614" y="54"/>
      <point x="614" y="102" type="qcurve"/>
      <point x="614" y="135"/>
      <point x="642" y="194"/>
      <point x="688" y="239"/>
      <point x="746" y="266"/>
      <point x="776" y="266" type="qcurve"/>
      <point x="825" y="266"/>
      <point x="883" y="201"/>
      <point x="883" y="153" type="qcurve"/>
      <point x="883" y="120"/>
      <point x="855" y="61"/>
      <point x="809" y="16"/>
      <point x="751" y="-10"/>
    </contour>
    <contour>
      <point x="725" y="10" type="qcurve"/>
      <point x="751" y="10"/>
      <point x="800" y="33"/>
      <point x="839" y="72"/>
      <point x="863" y="122"/>
      <point x="863" y="149" type="qcurve"/>
      <point x="863" y="190"/>
      <point x="812" y="246"/>
      <point x="771" y="246" type="qcurve"/>
      <point x="745" y="246"/>
      <point x="696" y="222"/>
      <point x="658" y="183"/>
      <point x="634" y="132"/>
      <point x="634" y="105" type="qcurve"/>
      <point x="634" y="65"/>
      <point x="683" y="10"/>
    </contour>
    <contour>
      <point x="-7" y="11" type="line"/>
      <point x="672" y="711" type="line"/>
      <point x="685" y="699" type="line"/>
      <point x="6" y="-1" type="line"/>
    </contour>
  </outline>
</glyph>
<glyph name="zerosuperior" format="1">
  <advance width="420"/>
  <unicode hex="2070"/>
  <outline>
    <contour>
      <point x="236" y="422" type="qcurve"/>
      <point x="201" y="422"/>
      <point x="151" y="450"/>
      <point x="119" y="495"/>
      <point x="104" y="552"/>
      <point x="104" y="580" type="qcurve"/>
      <point x="104" y="619"/>
      <point x="138" y="701"/>
      <point x="196" y="768"/>
      <point x="274" y="810"/>
      <point x="318" y="810" type="qcurve"/>
      <point x="352" y="810"/>
      <point x="402" y="781"/>
      <point x="434" y="736"/>
      <point x="449" y="680"/>
      <point x="449" y="652" type="qcurve"/>
      <point x="449" y="612"/>
      <point x="416" y="530"/>
      <point x="358" y="464"/>
      <point x="281" y="422"/>
    </contour>
    <contour>
      <point x="124" y="582" type="qcurve"/>
      <point x="124" y="556"/>
      <point x="138" y="505"/>
      <point x="167" y="465"/>
      <point x="210" y="441"/>
      <point x="240" y="441" type="qcurve"/>
      <point x="282" y="441"/>
      <point x="352" y="482"/>
      <point x="401" y="545"/>
      <point x="429" y="617"/>
      <point x="429" y="649" type="qcurve"/>
      <point x="429" y="675"/>
      <point x="415" y="726"/>
      <point x="386" y="766"/>
      <point x="343" y="791"/>
      <point x="314" y="791" type="qcurve"/>
      <point x="272" y="791"/>
      <point x="202" y="750"/>
      <point x="152" y="687"/>
      <point x="124" y="614"/>
    </contour>
  </outline>
</glyph>
<glyph name="eightsuperior" format="1">
  <advance width="367"/>
  <unicode hex="2078"/>
  <outline>
    <contour>
      <point x="376" y="546" type="qcurve"/>
      <point x="376" y="518"/>
      <point x="347" y="473"/>
      <point x="300" y="441"/>
      <point x="239" y="423"/>
      <point x="208" y="423" type="qcurve"/>
      <point x="151" y="423"/>
      <point x="89" y="479"/>
      <point x="89" y="517" type="qcurve"/>
      <point x="89" y="539"/>
      <point x="110" y="577"/>
      <point x="144" y="607"/>
      <point x="186" y="627"/>
      <point x="206" y="633" type="qcurve"/>
      <point x="180" y="642"/>
      <point x="144" y="679"/>
      <point x="144" y="705" type="qcurve"/>
      <point x="144" y="730"/>
      <point x="171" y="769"/>
      <point x="214" y="796"/>
      <point x="266" y="810"/>
      <point x="292" y="810" type="qcurve"/>
      <point x="313" y="810"/>
      <point x="352" y="800"/>
      <point x="382" y="780"/>
      <point x="400" y="750"/>
      <point x="400" y="731" type="qcurve"/>
      <point x="400" y="713"/>
      <point x="384" y="682"/>
      <point x="357" y="657"/>
      <point x="321" y="639"/>
      <point x="302" y="633" type="qcurve"/>
      <point x="334" y="623"/>
      <point x="376" y="578"/>
    </contour>
    <contour>
      <point x="356" y="544" type="qcurve"/>
      <point x="356" y="563"/>
      <point x="338" y="592"/>
      <point x="308" y="613"/>
      <point x="271" y="624"/>
      <point x="252" y="624" type="qcurve"/>
      <point x="228" y="624"/>
      <point x="177" y="609"/>
      <point x="135" y="581"/>
      <point x="109" y="542"/>
      <point x="109" y="519" type="qcurve"/>
      <point x="109" y="501"/>
      <point x="127" y="472"/>
      <point x="157" y="452"/>
      <point x="195" y="441"/>
      <point x="214" y="441" type="qcurve"/>
      <point x="238" y="441"/>
      <point x="288" y="455"/>
      <point x="330" y="482"/>
      <point x="356" y="520"/>
    </contour>
    <contour>
      <point x="164" y="706" type="qcurve"/>
      <point x="164" y="691"/>
      <point x="180" y="666"/>
      <point x="206" y="650"/>
      <point x="238" y="641"/>
      <point x="255" y="641" type="qcurve"/>
      <point x="275" y="641"/>
      <point x="319" y="653"/>
      <point x="356" y="675"/>
      <point x="380" y="707"/>
      <point x="380" y="727" type="qcurve"/>
      <point x="380" y="758"/>
      <point x="324" y="792"/>
      <point x="287" y="792" type="qcurve"/>
      <point x="264" y="792"/>
      <point x="220" y="780"/>
      <point x="186" y="757"/>
      <point x="164" y="725"/>
    </contour>
  </outline>
</glyph>
<glyph name="oneinferior" format="1">
  <advance width="240"/>
  <unicode hex="2081"/>
  <outline>
    <contour>
      <point x="144" y="-61" type="line"/>
      <point x="140" y="-80" type="line"/>
      <point x="-33" y="-80" type="line"/>
      <point x="-29" y="-61" type="line"/>
      <point x="50" y="-61" type="line"/>
      <point x="123" y="283" type="line"/>
      <point x="117" y="277"/>
      <point x="92" y="260"/>
      <point x="63" y="246"/>
      <point x="33" y="236"/>
      <point x="21" y="236" type="qcurve"/>
      <point x="25" y="255" type="line"/>
      <point x="40" y="255"/>
      <point x="76" y="271"/>
      <point x="107" y="291"/>
      <point x="128" y="308"/>
      <point x="129" y="309" type="qcurve"/>
      <point x="148" y="309" type="line"/>
      <point x="70" y="-61" type="line"/>
    </contour>
  </outline>
</glyph>
<glyph name="fourinferior" format="1">
  <advance width="352"/>
  <unicode hex="2084"/>
  <outline>
    <contour>
      <point x="167" y="-80" type="line"/>
      <point x="190" y="30" type="line"/>
      <point x="-31" y="30" type="line"/>
      <point x="-27" y="47" type="line"/>
      <point x="254" y="303" type="line"/>
      <point x="268" y="303" type="line"/>
      <point x="214" y="49" type="line"/>
      <point x="266" y="49" type="line"/>
      <point x="262" y="30" type="line"/>
      <point x="210" y="30" type="line"/>
      <point x="186" y="-80" type="line"/>
    </contour>
    <contour>
      <point x="0" y="49" type="line"/>
      <point x="194" y="49" type="line"/>
      <point x="241" y="268" type="line"/>
    </contour>
  </outline>
</glyph>
<glyph name="uni20A9" format="1">
  <advance width="1020"/>
  <unicode hex="20A9"/>
  <outline>
    <contour>
      <point x="55" y="369" type="line"/>
      <point x="187" y="369" type="line"/>
      <point x="173" y="439" type="line"/>
      <point x="70" y="439" type="line"/>
      <point x="74" y="459" type="line"/>
      <point x="169" y="459" type="line"/>
      <point x="119" y="710" type="line"/>
      <point x="141" y="710" type="line"/>
      <point x="191" y="459" type="line"/>
      <point x="511" y="459" type="line"/>
      <point x="461" y="704" type="line"/>
      <point x="483" y="704" type="line"/>
      <point x="535" y="438" type="line"/>
      <point x="701" y="704" type="line"/>
      <point x="723" y="704" type="line"/>
      <point x="569" y="459" type="line"/>
      <point x="890" y="459" type="line"/>
      <point x="1047" y="710" type="line"/>
      <point x="1069" y="710" type="line"/>
      <point x="912" y="459" type="line"/>
      <point x="1007" y="459" type="line"/>
      <point x="1002" y="439" type="line"/>
      <point x="899" y="439" type="line"/>
      <point x="856" y="369" type="line"/>
      <point x="987" y="369" type="line"/>
      <point x="983" y="349" type="line"/>
      <point x="843" y="349" type="line"/>
      <point x="625" y="0" type="line"/>
      <point x="603" y="0" type="line"/>
      <point x="526" y="389" type="line"/>
      <point x="283" y="0" type="line"/>
      <point x="261" y="0" type="line"/>
      <point x="191" y="349" type="line"/>
      <point x="51" y="349" type="line"/>
    </contour>
    <contour>
      <point x="619" y="25" type="line"/>
      <point x="821" y="349" type="line"/>
      <point x="554" y="349" type="line"/>
    </contour>
    <contour>
      <point x="277" y="25" type="line"/>
      <point x="479" y="349" type="line"/>
      <point x="213" y="349" type="line"/>
    </contour>
    <contour>
      <point x="550" y="369" type="line"/>
      <point x="834" y="369" type="line"/>
      <point x="877" y="439" type="line"/>
      <point x="556" y="439" type="line"/>
      <point x="541" y="414" type="line"/>
    </contour>
    <contour>
      <point x="515" y="439" type="line"/>
      <point x="195" y="439" type="line"/>
      <point x="209" y="369" type="line"/>
      <point x="492" y="369" type="line"/>
      <point x="520" y="414" type="line"/>
    </contour>
  </outline>
</glyph>
<glyph name="servicemark" format="1">
  <advance width="630"/>
  <unicode hex="2120"/>
  <outline>
    <contour>
      <point x="622" y="710" type="line"/>
      <point x="644" y="710" type="line"/>
      <point x="585" y="433" type="line"/>
      <point x="566" y="433" type="line"/>
      <point x="617" y="672" type="line"/>
      <point x="482" y="475" type="line"/>
      <point x="465" y="475" type="line"/>
      <point x="414" y="672" type="line"/>
      <point x="364" y="433" type="line"/>
      <point x="344" y="433" type="line"/>
      <point x="403" y="710" type="line"/>
      <point x="424" y="710" type="line"/>
      <point x="479" y="501" type="line"/>
    </contour>
    <contour>
      <point x="301" y="664" type="line"/>
      <point x="292" y="682"/>
      <point x="264" y="695"/>
      <point x="244" y="695" type="qcurve"/>
      <point x="197" y="695"/>
      <point x="156" y="658"/>
      <point x="156" y="629" type="qcurve"/>
      <point x="156" y="618"/>
      <point x="169" y="603"/>
      <point x="190" y="593"/>
      <point x="217" y="584"/>
      <point x="231" y="580" type="qcurve"/>
      <point x="257" y="572"/>
      <point x="300" y="545"/>
      <point x="300" y="517" type="qcurve"/>
      <point x="300" y="475"/>
      <point x="239" y="430"/>
      <point x="188" y="430" type="qcurve"/>
      <point x="126" y="430"/>
      <point x="94" y="474" type="qcurve"/>
      <point x="108" y="491" type="line"/>
      <point x="123" y="468"/>
      <point x="163" y="449"/>
      <point x="193" y="449" type="qcurve"/>
      <point x="232" y="449"/>
      <point x="280" y="480"/>
      <point x="280" y="512" type="qcurve"/>
      <point x="280" y="534"/>
      <point x="242" y="554"/>
      <point x="218" y="562" type="qcurve"/>
      <point x="203" y="566"/>
      <point x="174" y="576"/>
      <point x="151" y="590"/>
      <point x="136" y="610"/>
      <point x="136" y="625" type="qcurve"/>
      <point x="136" y="667"/>
      <point x="198" y="715"/>
      <point x="248" y="715" type="qcurve"/>
      <point x="273" y="715"/>
      <point x="308" y="700"/>
      <point x="320" y="681" type="qcurve"/>
    </contour>
  </outline>
</glyph>
<glyph name="Omega" format="1">
  <advance width="819"/>
  <unicode hex="2126"/>
  <outline>
    <contour>
      <point x="63" y="21" type="line"/>
      <point x="282" y="21" type="line"/>
      <point x="232" y="43"/>
      <point x="152" y="115"/>
      <point x="97" y="205"/>
      <point x="68" y="310"/>
      <point x="68" y="365" type="qcurve"/>
      <point x="68" y="434"/>
      <point x="118" y="561"/>
      <point x="206" y="657"/>
      <point x="327" y="715"/>
      <point x="399" y="715" type="qcurve"/>
      <point x="471" y="715"/>
      <point x="592" y="657"/>
      <point x="680" y="561"/>
      <point x="730" y="434"/>
      <point x="730" y="365" type="qcurve"/>
      <point x="730" y="310"/>
      <point x="701" y="205"/>
      <point x="646" y="115"/>
      <point x="566" y="43"/>
      <point x="516" y="21" type="qcurve"/>
      <point x="735" y="21" type="line"/>
      <point x="735" y="0" type="line"/>
      <point x="446" y="0" type="line"/>
      <point x="446" y="21" type="line"/>
      <point x="510" y="34"/>
      <point x="609" y="104"/>
      <point x="675" y="200"/>
      <point x="709" y="311"/>
      <point x="709" y="365" type="qcurve"/>
      <point x="709" y="426"/>
      <point x="666" y="544"/>
      <point x="586" y="636"/>
      <point x="471" y="693"/>
      <point x="399" y="693" type="qcurve"/>
      <point x="327" y="693"/>
      <point x="212" y="636"/>
      <point x="132" y="544"/>
      <point x="89" y="426"/>
      <point x="89" y="365" type="qcurve"/>
      <point x="89" y="311"/>
      <point x="123" y="200"/>
      <point x="189" y="104"/>
      <point x="287" y="34"/>
      <point x="352" y="21" type="qcurve"/>
      <point x="352" y="0" type="line"/>
      <point x="63" y="0" type="line"/>
    </contour>
  </outline>
</glyph>
<glyph name="oneeighth" format="1">
  <advance width="752"/>
  <unicode hex="215B"/>
  <outline>
    <contour>
      <point x="21" y="11" type="line"/>
      <point x="700" y="711" type="line"/>
      <point x="713" y="699" type="line"/>
      <point x="34" y="-1" type="line"/>
    </contour>
    <contour>
      <point x="242" y="361" type="line"/>
      <point x="238" y="342" type="line"/>
      <point x="66" y="342" type="line"/>
      <point x="70" y="361" type="line"/>
      <point x="149" y="361" type="line"/>
      <point x="222" y="705" type="line"/>
      <point x="216" y="699"/>
      <point x="191" y="682"/>
      <point x="162" y="668"/>
      <point x="132" y="658"/>
      <point x="120" y="658" type="qcurve"/>
      <point x="124" y="677" type="line"/>
      <point x="139" y="677"/>
      <point x="175" y="693"/>
      <point x="205" y="713"/>
      <point x="226" y="730"/>
      <point x="227" y="731" type="qcurve"/>
      <point x="247" y="731" type="line"/>
      <point x="168" y="361" type="line"/>
    </contour>
    <contour>
      <point x="507" y="-4" type="qcurve"/>
      <point x="450" y="-4"/>
      <point x="388" y="52"/>
      <point x="388" y="90" type="qcurve"/>
      <point x="388" y="112"/>
      <point x="409" y="150"/>
      <point x="442" y="180"/>
      <point x="484" y="200"/>
      <point x="504" y="206" type="qcurve"/>
      <point x="478" y="215"/>
      <point x="443" y="252"/>
      <point x="443" y="278" type="qcurve"/>
      <point x="443" y="303"/>
      <point x="470" y="342"/>
      <point x="513" y="369"/>
      <point x="565" y="383"/>
      <point x="591" y="383" type="qcurve"/>
      <point x="612" y="383"/>
      <point x="651" y="373"/>
      <point x="681" y="353"/>
      <point x="699" y="323"/>
      <point x="699" y="304" type="qcurve"/>
      <point x="699" y="286"/>
      <point x="682" y="255"/>
      <point x="655" y="230"/>
      <point x="619" y="212"/>
      <point x="600" y="206" type="qcurve"/>
      <point x="633" y="196"/>
      <point x="674" y="151"/>
      <point x="674" y="119" type="qcurve"/>
      <point x="674" y="91"/>
      <point x="645" y="46"/>
      <point x="599" y="14"/>
      <point x="538" y="-4"/>
    </contour>
    <contour>
      <point x="513" y="14" type="qcurve"/>
      <point x="537" y="14"/>
      <point x="587" y="28"/>
      <point x="629" y="55"/>
      <point x="655" y="93"/>
      <point x="655" y="117" type="qcurve"/>
      <point x="655" y="136"/>
      <point x="637" y="165"/>
      <point x="607" y="186"/>
      <point x="569" y="197"/>
      <point x="550" y="197" type="qcurve"/>
      <point x="526" y="197"/>
      <point x="476" y="182"/>
      <point x="434" y="154"/>
      <point x="408" y="115"/>
      <point x="408" y="92" type="qcurve"/>
      <point x="408" y="74"/>
      <point x="426" y="45"/>
      <point x="456" y="25"/>
      <point x="494" y="14"/>
    </contour>
    <contour>
      <point x="554" y="214" type="qcurve"/>
      <point x="574" y="214"/>
      <point x="618" y="226"/>
      <point x="655" y="248"/>
      <point x="679" y="280"/>
      <point x="679" y="300" type="qcurve"/>
      <point x="679" y="331"/>
      <point x="623" y="365"/>
      <point x="586" y="365" type="qcurve"/>
      <point x="563" y="365"/>
      <point x="519" y="353"/>
      <point x="485" y="330"/>
      <point x="463" y="298"/>
      <point x="463" y="279" type="qcurve"/>
      <point x="463" y="264"/>
      <point x="479" y="239"/>
      <point x="505" y="223"/>
      <point x="537" y="214"/>
    </contour>
  </outline>
</glyph>
<glyph name="threeeighths" format="1">
  <advance width="757"/>
  <unicode hex="215C"/>
  <outline>
    <contour>
      <point x="42" y="11" type="line"/>
      <point x="721" y="711" type="line"/>
      <point x="734" y="699" type="line"/>
      <point x="55" y="-1" type="line"/>
    </contour>
    <contour>
      <point x="510" y="-4" type="qcurve"/>
      <point x="453" y="-4"/>
      <point x="391" y="52"/>
      <point x="391" y="90" type="qcurve"/>
      <point x="391" y="112"/>
      <point x="412" y="150"/>
      <point x="445" y="180"/>
      <point x="487" y="200"/>
      <point x="507" y="206" type="qcurve"/>
      <point x="481" y="215"/>
      <point x="446" y="252"/>
      <point x="446" y="278" type="qcurve"/>
      <point x="446" y="303"/>
      <point x="473" y="342"/>
      <point x="516" y="369"/>
      <point x="568" y="383"/>
      <point x="594" y="383" type="qcurve"/>
      <point x="615" y="383"/>
      <point x="654" y="373"/>
      <point x="684" y="353"/>
      <point x="702" y="323"/>
      <point x="702" y="304" type="qcurve"/>
      <point x="702" y="286"/>
      <point x="685" y="255"/>
      <point x="658" y="230"/>
      <point x="622" y="212"/>
      <point x="603" y="206" type="qcurve"/>
      <point x="636" y="196"/>
      <point x="677" y="151"/>
      <point x="677" y="119" type="qcurve"/>
      <point x="677" y="91"/>
      <point x="648" y="46"/>
      <point x="602" y="14"/>
      <point x="541" y="-4"/>
    </contour>
    <contour>
      <point x="516" y="14" type="qcurve"/>
      <point x="540" y="14"/>
      <point x="590" y="28"/>
      <point x="632" y="55"/>
      <point x="658" y="93"/>
      <point x="658" y="117" type="qcurve"/>
      <point x="658" y="136"/>
      <point x="640" y="165"/>
      <point x="610" y="186"/>
      <point x="572" y="197"/>
      <point x="553" y="197" type="qcurve"/>
      <point x="529" y="197"/>
      <point x="479" y="182"/>
      <point x="437" y="154"/>
      <point x="411" y="115"/>
      <point x="411" y="92" type="qcurve"/>
      <point x="411" y="74"/>
      <point x="429" y="45"/>
      <point x="459" y="25"/>
      <point x="497" y="14"/>
    </contour>
    <contour>
      <point x="557" y="214" type="qcurve"/>
      <point x="577" y="214"/>
      <point x="621" y="226"/>
      <point x="658" y="248"/>
      <point x="682" y="280"/>
      <point x="682" y="300" type="qcurve"/>
      <point x="682" y="331"/>
      <point x="626" y="365"/>
      <point x="589" y="365" type="qcurve"/>
      <point x="566" y="365"/>
      <point x="522" y="353"/>
      <point x="488" y="330"/>
      <point x="466" y="298"/>
      <point x="466" y="279" type="qcurve"/>
      <point x="466" y="264"/>
      <point x="482" y="239"/>
      <point x="508" y="223"/>
      <point x="540" y="214"/>
    </contour>
    <contour>
      <point x="192" y="338" type="qcurve"/>
      <point x="173" y="338"/>
      <point x="130" y="349"/>
      <point x="94" y="372"/>
      <point x="71" y="408"/>
      <point x="71" y="434" type="qcurve"/>
      <point x="88" y="441" type="line"/>
      <point x="88" y="406"/>
      <point x="145" y="357"/>
      <point x="196" y="357" type="qcurve"/>
      <point x="224" y="357"/>
      <point x="275" y="372"/>
      <point x="313" y="398"/>
      <point x="336" y="433"/>
      <point x="336" y="454" type="qcurve"/>
      <point x="336" y="489"/>
      <point x="269" y="529"/>
      <point x="212" y="529" type="qcurve"/>
      <point x="191" y="529" type="line"/>
      <point x="195" y="547" type="line"/>
      <point x="216" y="547" type="line"/>
      <point x="286" y="547"/>
      <point x="363" y="593"/>
      <point x="363" y="637" type="qcurve"/>
      <point x="363" y="671"/>
      <point x="309" y="713"/>
      <point x="264" y="713" type="qcurve"/>
      <point x="224" y="713"/>
      <point x="156" y="679"/>
      <point x="139" y="653" type="qcurve"/>
      <point x="127" y="665" type="line"/>
      <point x="147" y="695"/>
      <point x="224" y="731"/>
      <point x="268" y="731" type="qcurve"/>
      <point x="321" y="731"/>
      <point x="384" y="679"/>
      <point x="384" y="640" type="qcurve"/>
      <point x="384" y="602"/>
      <point x="332" y="549"/>
      <point x="279" y="538" type="qcurve"/>
      <point x="315" y="531"/>
      <point x="356" y="486"/>
      <point x="356" y="456" type="qcurve"/>
      <point x="356" y="430"/>
      <point x="329" y="387"/>
      <point x="284" y="356"/>
      <point x="224" y="338"/>
    </contour>
  </outline>
</glyph>
<glyph name="C.sc" format="1">
  <advance width="571"/>
  <outline>
    <contour>
      <point x="324" y="707" type="move" name="top"/>
    </contour>
    <contour>
      <point x="323" y="0" type="move" name="bottom"/>
    </contour>
    <contour>
      <point x="246" y="-5" type="qcurve"/>
      <point x="197" y="-5"/>
      <point x="121" y="34"/>
      <point x="68" y="99"/>
      <point x="41" y="183"/>
      <point x="41" y="227" type="qcurve"/>
      <point x="41" y="281"/>
      <point x="89" y="394"/>
      <point x="176" y="485"/>
      <point x="295" y="543"/>
      <point x="366" y="543" type="qcurve"/>
      <point x="440" y="543"/>
      <point x="529" y="476"/>
      <point x="543" y="425" type="qcurve"/>
      <point x="523" y="417" type="line"/>
      <point x="514" y="447"/>
      <point x="479" y="487"/>
      <point x="436" y="512"/>
      <point x="385" y="523"/>
      <point x="359" y="523" type="qcurve"/>
      <point x="293" y="523"/>
      <point x="184" y="469"/>
      <point x="105" y="384"/>
      <point x="61" y="278"/>
      <point x="61" y="227" type="qcurve"/>
      <point x="61" y="184"/>
      <point x="88" y="107"/>
      <point x="138" y="49"/>
      <point x="209" y="15"/>
      <point x="253" y="15" type="qcurve"/>
      <point x="280" y="15"/>
      <point x="339" y="28"/>
      <point x="398" y="55"/>
      <point x="452" y="98"/>
      <point x="474" y="127" type="qcurve"/>
      <point x="491" y="121" type="line"/>
      <point x="470" y="91"/>
      <point x="412" y="44"/>
      <point x="346" y="12"/>
      <point x="277" y="-5"/>
    </contour>
  </outline>
</glyph>
<glyph name="H.sc" format="1">
  <advance width="604"/>
  <outline>
    <contour>
      <point x="310" y="707" type="move" name="top"/>
    </contour>
    <contour>
      <point x="144" y="540" type="line"/>
      <point x="164" y="540" type="line"/>
      <point x="110" y="286" type="line"/>
      <point x="488" y="286" type="line"/>
      <point x="542" y="540" type="line"/>
      <point x="562" y="540" type="line"/>
      <point x="447" y="0" type="line"/>
      <point x="427" y="0" type="line"/>
      <point x="483" y="266" type="line"/>
      <point x="105" y="266" type="line"/>
      <point x="49" y="0" type="line"/>
      <point x="29" y="0" type="line"/>
    </contour>
  </outline>
</glyph>
<glyph name="J.sc" format="1">
  <advance width="403"/>
  <outline>
    <contour>
      <point x="315" y="707" type="move" name="top"/>
    </contour>
    <contour>
      <point x="86" y="-8" type="qcurve"/>
      <point x="15" y="-8"/>
      <point x="-27" y="25" type="qcurve"/>
      <point x="-14" y="41" type="line"/>
      <point x="24" y="11"/>
      <point x="90" y="11" type="qcurve"/>
      <point x="139" y="11"/>
      <point x="204" y="46"/>
      <point x="248" y="111"/>
      <point x="277" y="205"/>
      <point x="290" y="265" type="qcurve"/>
      <point x="348" y="539" type="line"/>
      <point x="368" y="539" type="line"/>
      <point x="310" y="265" type="line"/>
      <point x="297" y="203"/>
      <point x="265" y="103"/>
      <point x="215" y="31"/>
      <point x="141" y="-8"/>
    </contour>
  </outline>
</glyph>
<glyph name="R.sc" format="1">
  <advance width="534"/>
  <outline>
    <contour>
      <point x="259" y="710" type="move" name="top"/>
    </contour>
    <contour>
      <point x="259" y="0" type="move" name="bottom"/>
    </contour>
    <contour>
      <point x="144" y="540" type="line"/>
      <point x="370" y="540" type="line"/>
      <point x="400" y="540"/>
      <point x="446" y="517"/>
      <point x="479" y="478"/>
      <point x="496" y="428"/>
      <point x="496" y="402" type="qcurve"/>
      <point x="496" y="368"/>
      <point x="468" y="302"/>
      <point x="419" y="250"/>
      <point x="354" y="215"/>
      <point x="318" y="212" type="qcurve"/>
      <point x="413" y="0" type="line"/>
      <point x="389" y="0" type="line"/>
      <point x="295" y="210" type="line"/>
      <point x="94" y="210" type="line"/>
      <point x="49" y="0" type="line"/>
      <point x="29" y="0" type="line"/>
    </contour>
    <contour>
      <point x="309" y="230" type="line"/>
      <point x="343" y="230"/>
      <point x="404" y="260"/>
      <point x="449" y="309"/>
      <point x="475" y="370"/>
      <point x="475" y="400" type="qcurve"/>
      <point x="475" y="424"/>
      <point x="459" y="467"/>
      <point x="431" y="500"/>
      <point x="390" y="520"/>
      <point x="365" y="520" type="qcurve"/>
      <point x="159" y="520" type="line"/>
      <point x="98" y="230" type="line"/>
    </contour>
  </outline>
</glyph>
<glyph name="S.sc" format="1">
  <advance width="504"/>
  <outline>
    <contour>
      <point x="254" y="729" type="move" name="top"/>
    </contour>
    <contour>
      <point x="254" y="0" type="move" name="bottom"/>
    </contour>
    <contour>
      <point x="198" y="-4" type="qcurve"/>
      <point x="132" y="-4"/>
      <point x="36" y="37"/>
      <point x="0" y="79" type="qcurve"/>
      <point x="17" y="93" type="line"/>
      <point x="49" y="52"/>
      <point x="139" y="13"/>
      <point x="203" y="13" type="qcurve"/>
      <point x="247" y="13"/>
      <point x="321" y="30"/>
      <point x="375" y="65"/>
      <point x="405" y="118"/>
      <point x="405" y="153" type="qcurve"/>
      <point x="405" y="199"/>
      <point x="327" y="245"/>
      <point x="247" y="261" type="qcurve"/>
      <point x="208" y="268"/>
      <point x="148" y="286"/>
      <point x="106" y="311"/>
      <point x="84" y="348"/>
      <point x="84" y="374" type="qcurve"/>
      <point x="84" y="414"/>
      <point x="118" y="476"/>
      <point x="178" y="520"/>
      <point x="262" y="543"/>
      <point x="312" y="543" type="qcurve"/>
      <point x="365" y="543"/>
      <point x="438" y="514"/>
      <point x="464" y="479" type="qcurve"/>
      <point x="449" y="464" type="line"/>
      <point x="424" y="499"/>
      <point x="359" y="525"/>
      <point x="309" y="525" type="qcurve"/>
      <point x="255" y="525"/>
      <point x="177" y="502"/>
      <point x="127" y="463"/>
      <point x="104" y="409"/>
      <point x="104" y="378" type="qcurve"/>
      <point x="104" y="356"/>
      <point x="122" y="326"/>
      <point x="159" y="303"/>
      <point x="216" y="287"/>
      <point x="254" y="279" type="qcurve"/>
      <point x="293" y="271"/>
      <point x="356" y="253"/>
      <point x="401" y="226"/>
      <point x="426" y="186"/>
      <point x="426" y="158" type="qcurve"/>
      <point x="426" y="119"/>
      <point x="393" y="59"/>
      <point x="333" y="18"/>
      <point x="249" y="-4"/>
    </contour>
  </outline>
</glyph>
<glyph name="c_t" format="1">
  <advance width="787"/>
  <outline>
    <contour>
      <point x="217" y="-10" type="qcurve"/>
      <point x="173" y="-10"/>
      <point x="103" y="27"/>
      <point x="55" y="88"/>
      <point x="30" y="168"/>
      <point x="30" y="211" type="qcurve"/>
      <point x="30" y="269"/>
      <point x="78" y="382"/>
      <point x="158" y="472"/>
      <point x="264" y="527"/>
      <point x="323" y="527" type="qcurve"/>
      <point x="370" y="527"/>
      <point x="434" y="503"/>
      <point x="454" y="481" type="qcurve"/>
      <point x="445" y="501"/>
      <point x="428" y="558"/>
      <point x="428" y="590" type="qcurve"/>
      <point x="428" y="621"/>
      <point x="450" y="680"/>
      <point x="491" y="726"/>
      <point x="549" y="753"/>
      <point x="584" y="753" type="qcurve"/>
      <point x="647" y="753"/>
      <point x="693" y="706"/>
      <point x="693" y="661" type="qcurve"/>
      <point x="693" y="632"/>
      <point x="680" y="561"/>
      <point x="671" y="519" type="qcurve"/>
      <point x="789" y="519" type="line"/>
      <point x="785" y="499" type="line"/>
      <point x="666" y="499" type="line"/>
      <point x="576" y="75" type="line"/>
      <point x="575" y="72"/>
      <point x="575" y="66" type="qcurve"/>
      <point x="575" y="41"/>
      <point x="607" y="15"/>
      <point x="630" y="15" type="qcurve"/>
      <point x="653" y="15"/>
      <point x="695" y="29"/>
      <point x="715" y="40" type="qcurve"/>
      <point x="722" y="24" type="line"/>
      <point x="693" y="10"/>
      <point x="654" y="-5"/>
      <point x="625" y="-5" type="qcurve"/>
      <point x="594" y="-5"/>
      <point x="554" y="29"/>
      <point x="554" y="58" type="qcurve"/>
      <point x="554" y="62"/>
      <point x="555" y="70"/>
      <point x="556" y="75" type="qcurve"/>
      <point x="646" y="499" type="line"/>
      <point x="575" y="499" type="line"/>
      <point x="579" y="519" type="line"/>
      <point x="651" y="519" type="line"/>
      <point x="658" y="554"/>
      <point x="672" y="620"/>
      <point x="672" y="648" type="qcurve"/>
      <point x="672" y="686"/>
      <point x="633" y="733"/>
      <point x="579" y="733" type="qcurve"/>
      <point x="547" y="733"/>
      <point x="499" y="709"/>
      <point x="465" y="670"/>
      <point x="448" y="621"/>
      <point x="448" y="595" type="qcurve"/>
      <point x="448" y="570"/>
      <point x="460" y="514"/>
      <point x="475" y="463"/>
      <point x="489" y="422"/>
      <point x="491" y="411" type="qcurve"/>
      <point x="471" y="404" type="line"/>
      <point x="454" y="458"/>
      <point x="374" y="507"/>
      <point x="318" y="507" type="qcurve"/>
      <point x="261" y="507"/>
      <point x="163" y="452"/>
      <point x="91" y="366"/>
      <point x="50" y="262"/>
      <point x="50" y="213" type="qcurve"/>
      <point x="50" y="172"/>
      <point x="74" y="98"/>
      <point x="119" y="43"/>
      <point x="182" y="10"/>
      <point x="221" y="10" type="qcurve"/>
      <point x="244" y="10"/>
      <point x="303" y="25"/>
      <point x="359" y="54"/>
      <point x="405" y="94"/>
      <point x="417" y="119" type="qcurve"/>
      <point x="435" y="113" type="line"/>
      <point x="419" y="83"/>
      <point x="367" y="37"/>
      <point x="307" y="6"/>
      <point x="244" y="-10"/>
    </contour>
  </outline>
</glyph>
<glyph name="eight.numerator" format="1">
  <advance width="367"/>
  <outline>
    <contour>
      <point x="359" y="466" type="qcurve"/>
      <point x="359" y="438"/>
      <point x="330" y="393"/>
      <point x="283" y="361"/>
      <point x="222" y="343"/>
      <point x="191" y="343" type="qcurve"/>
      <point x="134" y="343"/>
      <point x="72" y="399"/>
      <point x="72" y="437" type="qcurve"/>
      <point x="72" y="459"/>
      <point x="93" y="497"/>
      <point x="127" y="527"/>
      <point x="169" y="547"/>
      <point x="189" y="553" type="qcurve"/>
      <point x="163" y="562"/>
      <point x="127" y="599"/>
      <point x="127" y="625" type="qcurve"/>
      <point x="127" y="650"/>
      <point x="154" y="689"/>
      <point x="197" y="716"/>
      <point x="249" y="730"/>
      <point x="275" y="730" type="qcurve"/>
      <point x="296" y="730"/>
      <point x="335" y="720"/>
      <point x="365" y="700"/>
      <point x="383" y="670"/>
      <point x="383" y="651" type="qcurve"/>
      <point x="383" y="633"/>
      <point x="367" y="602"/>
      <point x="340" y="577"/>
      <point x="304" y="559"/>
      <point x="285" y="553" type="qcurve"/>
      <point x="317" y="543"/>
      <point x="359" y="498"/>
    </contour>
    <contour>
      <point x="339" y="464" type="qcurve"/>
      <point x="339" y="483"/>
      <point x="321" y="512"/>
      <point x="291" y="533"/>
      <point x="254" y="544"/>
      <point x="235" y="544" type="qcurve"/>
      <point x="211" y="544"/>
      <point x="160" y="529"/>
      <point x="118" y="501"/>
      <point x="92" y="462"/>
      <point x="92" y="439" type="qcurve"/>
      <point x="92" y="421"/>
      <point x="110" y="392"/>
      <point x="140" y="372"/>
      <point x="178" y="361"/>
      <point x="197" y="361" type="qcurve"/>
      <point x="221" y="361"/>
      <point x="271" y="375"/>
      <point x="313" y="402"/>
      <point x="339" y="440"/>
    </contour>
    <contour>
      <point x="147" y="626" type="qcurve"/>
      <point x="147" y="611"/>
      <point x="163" y="586"/>
      <point x="189" y="570"/>
      <point x="221" y="561"/>
      <point x="238" y="561" type="qcurve"/>
      <point x="258" y="561"/>
      <point x="302" y="573"/>
      <point x="339" y="595"/>
      <point x="363" y="627"/>
      <point x="363" y="647" type="qcurve"/>
      <point x="363" y="678"/>
      <point x="307" y="712"/>
      <point x="270" y="712" type="qcurve"/>
      <point x="247" y="712"/>
      <point x="203" y="700"/>
      <point x="169" y="677"/>
      <point x="147" y="645"/>
    </contour>
  </outline>
</glyph>
<glyph name="five.denominator" format="1">
  <advance width="350"/>
  <outline>
    <contour>
      <point x="105" y="-5" type="qcurve"/>
      <point x="60" y="-5"/>
      <point x="-1" y="37"/>
      <point x="-11" y="72" type="qcurve"/>
      <point x="7" y="78" type="line"/>
      <point x="17" y="49"/>
      <point x="72" y="13"/>
      <point x="110" y="13" type="qcurve"/>
      <point x="139" y="13"/>
      <point x="191" y="32"/>
      <point x="231" y="65"/>
      <point x="255" y="110"/>
      <point x="255" y="136" type="qcurve"/>
      <point x="255" y="157"/>
      <point x="238" y="189"/>
      <point x="210" y="211"/>
      <point x="174" y="222"/>
      <point x="154" y="222" type="qcurve"/>
      <point x="122" y="222"/>
      <point x="61" y="196"/>
      <point x="38" y="173" type="qcurve"/>
      <point x="18" y="173" type="line"/>
      <point x="21" y="181"/>
      <point x="37" y="217"/>
      <point x="57" y="263"/>
      <point x="79" y="311"/>
      <point x="97" y="353"/>
      <point x="108" y="381"/>
      <point x="109" y="383" type="qcurve"/>
      <point x="309" y="383" type="line"/>
      <point x="305" y="364" type="line"/>
      <point x="121" y="364" type="line"/>
      <point x="50" y="202" type="line"/>
      <point x="74" y="222"/>
      <point x="132" y="241"/>
      <point x="161" y="241" type="qcurve"/>
      <point x="212" y="241"/>
      <point x="275" y="186"/>
      <point x="275" y="141" type="qcurve"/>
      <point x="275" y="109"/>
      <point x="246" y="55"/>
      <point x="198" y="16"/>
      <point x="137" y="-5"/>
    </contour>
  </outline>
</glyph>
<glyph name="seven.numerator" format="1">
  <advance width="312"/>
  <outline>
    <contour>
      <point x="356" y="711" type="line"/>
      <point x="111" y="711" type="line"/>
      <point x="115" y="730" type="line"/>
      <point x="391" y="730" type="line"/>
      <point x="95" y="347" type="line"/>
      <point x="73" y="347" type="line"/>
    </contour>
  </outline>
</glyph>
<glyph name="six.numerator" format="1">
  <advance width="379"/>
  <outline>
    <contour>
      <point x="381" y="491" type="qcurve"/>
      <point x="381" y="460"/>
      <point x="352" y="405"/>
      <point x="303" y="363"/>
      <point x="239" y="339"/>
      <point x="205" y="339" type="qcurve"/>
      <point x="151" y="339"/>
      <point x="85" y="403"/>
      <point x="85" y="460" type="qcurve"/>
      <point x="85" y="515"/>
      <point x="115" y="613"/>
      <point x="170" y="687"/>
      <point x="245" y="730"/>
      <point x="290" y="730" type="qcurve"/>
      <point x="332" y="730"/>
      <point x="390" y="689"/>
      <point x="396" y="654" type="qcurve"/>
      <point x="379" y="644" type="line"/>
      <point x="374" y="674"/>
      <point x="324" y="712"/>
      <point x="287" y="712" type="qcurve"/>
      <point x="228" y="712"/>
      <point x="134" y="611"/>
      <point x="114" y="517" type="qcurve"/>
      <point x="136" y="555"/>
      <point x="219" y="600"/>
      <point x="264" y="600" type="qcurve"/>
      <point x="316" y="600"/>
      <point x="381" y="537"/>
    </contour>
    <contour>
      <point x="210" y="357" type="qcurve"/>
      <point x="239" y="357"/>
      <point x="294" y="378"/>
      <point x="336" y="413"/>
      <point x="362" y="460"/>
      <point x="362" y="486" type="qcurve"/>
      <point x="362" y="526"/>
      <point x="303" y="583"/>
      <point x="257" y="583" type="qcurve"/>
      <point x="228" y="583"/>
      <point x="173" y="562"/>
      <point x="131" y="526"/>
      <point x="105" y="479"/>
      <point x="105" y="453" type="qcurve"/>
      <point x="105" y="413"/>
      <point x="164" y="357"/>
    </contour>
  </outline>
</glyph>
<glyph name="two.denominator" format="1">
  <advance width="354"/>
  <outline>
    <contour>
      <point x="-23" y="0" type="line"/>
      <point x="-7" y="74"/>
      <point x="72" y="152"/>
      <point x="131" y="173" type="qcurve"/>
      <point x="156" y="182"/>
      <point x="212" y="200"/>
      <point x="258" y="226"/>
      <point x="288" y="265"/>
      <point x="288" y="295" type="qcurve"/>
      <point x="288" y="324"/>
      <point x="246" y="369"/>
      <point x="198" y="369" type="qcurve"/>
      <point x="172" y="369"/>
      <point x="129" y="356"/>
      <point x="95" y="338"/>
      <point x="70" y="317"/>
      <point x="62" y="309" type="qcurve"/>
      <point x="50" y="321" type="line"/>
      <point x="51" y="323"/>
      <point x="73" y="344"/>
      <point x="114" y="368"/>
      <point x="170" y="388"/>
      <point x="204" y="388" type="qcurve"/>
      <point x="260" y="388"/>
      <point x="309" y="335"/>
      <point x="309" y="299" type="qcurve"/>
      <point x="309" y="262"/>
      <point x="275" y="216"/>
      <point x="224" y="186"/>
      <point x="167" y="168"/>
      <point x="143" y="160" type="qcurve"/>
      <point x="102" y="146"/>
      <point x="52" y="110"/>
      <point x="22" y="71"/>
      <point x="9" y="34"/>
      <point x="6" y="19" type="qcurve"/>
      <point x="252" y="19" type="line"/>
      <point x="248" y="0" type="line"/>
    </contour>
  </outline>
</glyph>
<glyph name="two.numerator" format="1">
  <advance width="354"/>
  <outline>
    <contour>
      <point x="50" y="343" type="line"/>
      <point x="66" y="417"/>
      <point x="145" y="495"/>
      <point x="204" y="516" type="qcurve"/>
      <point x="229" y="525"/>
      <point x="285" y="543"/>
      <point x="331" y="569"/>
      <point x="361" y="608"/>
      <point x="361" y="638" type="qcurve"/>
      <point x="361" y="667"/>
      <point x="319" y="712"/>
      <point x="271" y="712" type="qcurve"/>
      <point x="245" y="712"/>
      <point x="202" y="699"/>
      <point x="168" y="681"/>
      <point x="143" y="660"/>
      <point x="135" y="652" type="qcurve"/>
      <point x="123" y="664" type="line"/>
      <point x="124" y="666"/>
      <point x="147" y="687"/>
      <point x="187" y="711"/>
      <point x="242" y="731"/>
      <point x="277" y="731" type="qcurve"/>
      <point x="333" y="731"/>
      <point x="382" y="678"/>
      <point x="382" y="642" type="qcurve"/>
      <point x="382" y="606"/>
      <point x="348" y="559"/>
      <point x="297" y="529"/>
      <point x="240" y="511"/>
      <point x="216" y="503" type="qcurve"/>
      <point x="176" y="489"/>
      <point x="125" y="453"/>
      <point x="95" y="415"/>
      <point x="82" y="377"/>
      <point x="79" y="362" type="qcurve"/>
      <point x="325" y="362" type="line"/>
      <point x="321" y="343" type="line"/>
    </contour>
  </outline>
</glyph>
<glyph name="u.alt" format="1">
  <advance width="549"/>
  <outline>
    <contour>
      <point x="171" y="-10" type="qcurve"/>
      <point x="135" y="-10"/>
      <point x="87" y="11"/>
      <point x="59" y="47"/>
      <point x="47" y="96"/>
      <point x="47" y="124" type="qcurve"/>
      <point x="47" y="149"/>
      <point x="54" y="202"/>
      <point x="60" y="228" type="qcurve"/>
      <point x="122" y="519" type="line"/>
      <point x="142" y="519" type="line"/>
      <point x="80" y="228" type="line"/>
      <point x="74" y="201"/>
      <point x="67" y="151"/>
      <point x="67" y="128" type="qcurve"/>
      <point x="67" y="102"/>
      <point x="78" y="59"/>
      <point x="103" y="27"/>
      <point x="144" y="10"/>
      <point x="175" y="10" type="qcurve"/>
      <point x="213" y="10"/>
      <point x="288" y="40"/>
      <point x="354" y="90"/>
      <point x="407" y="154"/>
      <point x="424" y="189" type="qcurve"/>
      <point x="495" y="519" type="line"/>
      <point x="515" y="519" type="line"/>
      <point x="404" y="0" type="line"/>
      <point x="384" y="0" type="line"/>
      <point x="412" y="132" type="line"/>
      <point x="390" y="100"/>
      <point x="334" y="48"/>
      <point x="270" y="11"/>
      <point x="203" y="-10"/>
    </contour>
  </outline>
</glyph>
<glyph name="zero.denominator" format="1">
  <advance width="421"/>
  <outline>
    <contour>
      <point x="146" y="-5" type="qcurve"/>
      <point x="111" y="-5"/>
      <point x="61" y="23"/>
      <point x="29" y="68"/>
      <point x="14" y="125"/>
      <point x="14" y="153" type="qcurve"/>
      <point x="14" y="192"/>
      <point x="48" y="274"/>
      <point x="106" y="341"/>
      <point x="184" y="383"/>
      <point x="228" y="383" type="qcurve"/>
      <point x="262" y="383"/>
      <point x="312" y="354"/>
      <point x="344" y="309"/>
      <point x="359" y="253"/>
      <point x="359" y="225" type="qcurve"/>
      <point x="359" y="185"/>
      <point x="326" y="103"/>
      <point x="268" y="37"/>
      <point x="191" y="-5"/>
    </contour>
    <contour>
      <point x="150" y="14" type="qcurve"/>
      <point x="192" y="14"/>
      <point x="262" y="55"/>
      <point x="311" y="118"/>
      <point x="339" y="190"/>
      <point x="339" y="222" type="qcurve"/>
      <point x="339" y="248"/>
      <point x="325" y="299"/>
      <point x="296" y="339"/>
      <point x="253" y="364"/>
      <point x="224" y="364" type="qcurve"/>
      <point x="182" y="364"/>
      <point x="112" y="323"/>
      <point x="62" y="260"/>
      <point x="34" y="187"/>
      <point x="34" y="155" type="qcurve"/>
      <point x="34" y="129"/>
      <point x="48" y="78"/>
      <point x="77" y="38"/>
      <point x="120" y="14"/>
    </contour>
  </outline>
</glyph>
